<?xml version="1.0" encoding="utf-8"?>
<!-- Generator: Adobe Illustrator 18.1.1, SVG Export Plug-In . SVG Version: 6.00 Build 0)  -->
<svg version="1.1" id="Layer_1" xmlns="http://www.w3.org/2000/svg" xmlns:xlink="http://www.w3.org/1999/xlink" x="0px" y="0px"
	 viewBox="0 0 91.9 37.8" enable-background="new 0 0 91.9 37.8" xml:space="preserve">
<path fill="none" stroke="#EC008C" stroke-width="2.8346" stroke-miterlimit="10" d="M90.2,44.8c-6.7-1.2-20.8-2.7-35.9,4
	C27.5,60.5,19.8,88.1,18.3,93.2c-4.8,17.2-1.9,31.5-0.6,37.6c9.4,43.6,50,67.1,63.3,66.7c8.4-0.3,15.4-3.4,15.4-3.4
	c1.4-1.4,3.7-3.3,6.8-4c4.8-1.1,8.1,1.4,13.1,2.3c5.3,1,9.3-0.3,15.4-2.3c15-4.8,30.5-27.1,39.9-50.7c6.7-16.9,11.4-28.8,9.1-45
	c-0.7-5.3-3.9-27.3-22.2-39.9c-11.1-7.6-22.5-8.1-34.8-8.6c-10.1-0.4-27.6,0.3-48.5,9.1"/>
<path fill="none" stroke="#EC008C" stroke-width="2.8346" stroke-miterlimit="10" d="M94.4,47.1c-0.7-2.2-1.5-5.6-1-9.7
	c0.6-5.7,2.9-9.3,3.8-10.5c1.4-1.9,2.5-3.4,4.5-3.7c3.3-0.5,7.4,2.4,7.2,4.6c-0.1,1.6-2.4,2.2-4.1,3.4c-2.8,2-5.3,6.2-3.8,15.7"/>
<path fill="none" stroke="#EC008C" stroke-width="2.8346" stroke-miterlimit="10" d="M89.9,35.7C89.2,33.4,88,30,86.5,26
	c-2-5.1-3.5-9.1-4.8-11.4C80.5,12.7,77,7.7,56.3,3.2c-17.9-3.9-30-0.5-35.9,3.4C14.5,10.4,0.7,30.3,1.4,31.7
	c0.8,1.5,19.1-8.4,36.6-0.3C56.3,39.9,81.5,34.8,89.9,35.7z"/>
</svg>
