<?xml version="1.0" encoding="utf-8"?>
<!-- Generator: Adobe Illustrator 18.1.1, SVG Export Plug-In . SVG Version: 6.00 Build 0)  -->
<svg version="1.1" id="Layer_1" xmlns="http://www.w3.org/2000/svg" xmlns:xlink="http://www.w3.org/1999/xlink" x="0px" y="0px"
	 viewBox="0 0 206.7 403" enable-background="new 0 0 206.7 403" xml:space="preserve">
<path d="M206.7,292.8c-0.1-2.2-0.2-4.6-0.5-7l-0.3-2l-0.1-0.5c0,0.1-0.2-1.6-0.2-1l0-0.2l-0.2-0.7c-0.2-0.9-0.4-1.8-0.6-2.7
	l-0.2-0.7l-0.2-0.8l-0.4-1.6c-0.3-1.1-0.6-2.1-0.9-3.2l-0.4-1.6l-0.4-1.4c-0.3-0.9-0.6-1.8-0.8-2.6c-0.6-1.7-1.1-3.5-1.7-5.2
	c-0.6-1.7-1.2-3.3-1.7-5c-1.1-3.3-2.3-6.5-3.4-9.6c-1.1-3.1-2.3-6.2-3.4-9.2c-4.5-11.9-8.8-22.7-12.7-32.3
	c-3.9-9.5-7.5-17.8-10.5-24.6c-3-6.8-5.4-12.1-7.1-15.7c-1.1-2.2-1.8-3.8-2.2-4.7V14.2V7.1V0H40.2v7.1v7.1v146.9
	c-0.3,0.8-1,2.5-2.1,5.1c-1.5,3.7-3.6,9.1-6.1,16.1c-2.6,7-5.6,15.4-8.9,25.2c-1.7,4.9-3.4,10.1-5.1,15.6
	c-1.8,5.5-3.6,11.3-5.4,17.5c-1.8,6.1-3.6,12.5-5.5,19.2c-1.8,6.7-3.6,13.7-5.2,21.3c-0.4,2-0.8,3.9-1.1,6.1c-0.1,0.6-0.2,1-0.2,1.7
	l-0.2,1.9l-0.1,0.9c0,0.3-0.1,0.8-0.1,1.2l0,1.3l0,0.6l0,0.3c0-0.2,0,0.7,0,0.7l0,1.4c0,0.2,0,0.6,0,0.9l0.1,1.1l0.1,1.1l0.1,0.9
	l0.2,1.8c0.3,2.3,0.5,4.5,0.9,6.6c0.7,4.3,1.6,8.6,2.8,13c0.6,2.2,1.3,4.5,2.1,6.8c0.2,0.6,0.4,1.2,0.7,1.8c0.2,0.6,0.4,1.2,0.7,1.9
	c0.3,0.7,0.5,1.3,0.9,2l1.1,2.2l0.9,1.6l0.3,0.7l0.5,0.9l1,1.8l0.9,1.6c1.3,2.1,2.6,4,3.9,5.9c2.7,3.8,5.5,7.5,8.5,11
	c6,7.1,12.6,13.6,20.1,19.8c7.5,6.1,15.8,11.7,25.8,16.1c5,2.2,10.5,4,16.5,5.2c1.5,0.3,3,0.5,4.6,0.7l2.4,0.2
	c0.8,0.1,1.6,0.1,2.4,0.1l1.2,0l0.6,0c-0.4,0,0.9,0,0.8,0l0.2,0l1.6,0c1.1,0,1.9,0,3.6-0.2c1.5-0.1,3.1-0.2,4.5-0.4l4-0.6
	c2.7-0.5,5.3-0.9,7.9-1.6c5.2-1.3,10.3-3.1,15.1-5.2c9.6-4.2,18.3-9.7,25.9-16c7.6-6.2,14.3-13.2,20.1-20.5
	c2.9-3.7,5.7-7.4,8.2-11.3c2.5-3.9,4.8-7.9,6.9-12c1.1-2.1,2.1-4.2,3-6.3l0.5-1.1l0.1-0.3l0.3-0.7l0.3-0.8l0.5-1.4l0.4-1.4l0.2-0.7
	l0.1-0.5l0.5-2c0.6-2.6,1.1-5,1.4-7.3c0.2-1.2,0.3-2.3,0.4-3.4c0.1-1.1,0.2-2.2,0.3-3.4C206.7,301.6,206.8,297.3,206.7,292.8z
	 M170.7,287.6l0,0.2l0,0.7c0,1.2,0,2.5-0.2,4c-0.2,2.9-0.6,6.1-1.1,9.2c-0.5,3.1-1.3,6.2-2,8.5l-0.3,0.8l-0.1,0.2c0,0,0,0,0,0
	c0,0,0,0,0,0c0,0,0,0,0,0c0,0-0.1,0.1-0.1,0.2l-0.2,0.3l-0.3,0.7l-0.2,0.3c-0.1,0.2,0.5-1.2,0.2-0.5l-0.1,0.1
	c-0.7,1.4-1.5,2.7-2.3,4.1c-1.7,2.8-3.6,5.5-5.6,8.3c-2,2.7-4.1,5.4-6.4,8c-4.5,5.2-9.6,9.8-14.9,13.9c-5.3,4.1-11,7.4-16.7,9.8
	c-2.9,1.2-5.8,2.1-8.7,2.8c-1.5,0.4-2.9,0.6-4.4,0.9l-2.2,0.3l-1.8,0.2c-4.4,0.2-5.2,0.2-7.7-0.2c-2.2-0.4-4.8-1.2-7.5-2.3
	c-5.4-2.3-11.2-5.8-16.6-10c-5.5-4.2-10.7-9-15.5-14.1c-2.4-2.5-4.7-5.2-6.7-7.8c-1-1.3-2-2.6-2.9-3.9l-1.2-1.7l-0.3-0.4l-0.4-0.6
	l-0.4-0.6l-0.2-0.3l-0.1-0.2c-0.1-0.3,0,0.1,0.1,0.1c-0.1-0.1-0.2-0.3-0.3-0.4c-0.1-0.2-0.2-0.5-0.4-0.7c-0.1-0.2-0.3-0.5-0.4-0.8
	c-0.1-0.3-0.3-0.6-0.4-0.9c-0.6-1.3-1.1-2.7-1.6-4.2c-1.1-3-2-6.2-2.8-9.3c-0.4-1.6-0.7-3.1-1-4.5c-0.1-0.6-0.2-1.2-0.4-1.8
	l-0.1-0.3c0-0.1-0.1-0.2-0.1-0.4l-0.1-1.4c0-0.1,0,0.1,0,0.3l0,0c0,0,0-0.1,0-0.1c0-0.1,0,0,0-0.2l0-0.4l0-0.9c0-0.3,0-0.7,0.1-1.1
	c0.1-1.4,0.3-3.1,0.4-4.7c0.7-6.6,1.7-13.5,2.6-20.1c0.9-6.6,1.9-13,2.9-19.2c1.9-12.4,3.6-23.8,5.1-33.9c1.5-10.1,2.8-19,3.7-26.3
	c1-7.3,1.7-13.1,2.2-17c0.1-1,0.2-1.9,0.3-2.7h0.6V14.2h90.1v153.2h0.8c0.2,0.9,0.3,1.9,0.6,3.1c0.7,3.9,1.9,9.6,3.4,16.8
	c1.5,7.2,3.4,16,5.6,26c2.2,10,4.8,21.2,7.5,33.5c1.3,6.1,2.9,12.5,4.3,19c1.4,6.5,3,13.5,3.7,18.9c0.1,0.9,0.2,1.8,0.3,2.7l0.1,0.7
	l0,0.2C170.9,289,170.7,287.4,170.7,287.6z"/>
</svg>
