<?xml version="1.0" encoding="utf-8"?>
<!-- Generator: Adobe Illustrator 18.1.1, SVG Export Plug-In . SVG Version: 6.00 Build 0)  -->
<svg version="1.1" id="Layer_1" xmlns="http://www.w3.org/2000/svg" xmlns:xlink="http://www.w3.org/1999/xlink" x="0px" y="0px"
	 viewBox="0 0 149.7 62.1" enable-background="new 0 0 149.7 62.1" xml:space="preserve">
<g>
	<path fill="#EC008C" d="M145.9,57.4c-0.8-2.2-2.3-6.3-4.4-11.8c-0.2-0.5-0.4-1.1-0.6-1.7c-0.2-0.6-0.5-1.1-0.7-1.7
		c-0.5-1.2-1-2.4-1.5-3.7c-1.1-2.6-2.2-5.4-3.6-8.3c-0.7-1.4-1.4-2.9-2.2-4.3l-0.2-0.3l-0.2-0.2c-0.1-0.2-0.2-0.4-0.3-0.5
		c-0.2-0.3-0.4-0.6-0.7-0.9c-0.5-0.6-1.1-1.1-1.7-1.7c-2.5-2.2-5.8-3.9-9.3-5.5c-7.1-3.1-15.4-5.4-24.2-7.3C95.2,9.3,94.1,9,93,8.8
		l-0.4-0.1l-0.4-0.1l-0.9-0.2c-0.6-0.1-1.2-0.2-1.7-0.3c-2.3-0.5-4.6-0.7-6.9-1.1C78,6.6,73.2,6.3,68.4,6.4
		c-4.8,0.1-9.7,0.6-14.5,1.6c-4.8,1-9.5,2.6-13.8,4.8l-1.6,0.9c-0.5,0.3-1,0.6-1.5,0.9l-0.3,0.2L36.4,15l-0.6,0.5
		c-0.4,0.4-0.9,0.7-1.3,1.1c-1.7,1.6-3.5,3.5-5.1,5.5c-3.3,3.9-6.5,8.1-9.5,12.4c-3.2,4.2-6.3,8.4-9.1,12.8c-0.7,1.1-1.4,2.2-2,3.2
		C8.5,51,8.2,51.5,8,52c-0.1,0.2-0.2,0.5-0.3,0.6l0,0.1c0,0,0,0.1,0,0c0,0,0,0,0-0.1c0,0,0-0.1,0-0.2c0-0.1,0-0.3,0-0.4
		c0-0.1,0-0.3-0.1-0.7c0.2,0.2-0.8-1.5-0.6-1.2c0,0,0.2,0.2-0.3-0.4c-0.3-0.3-1-0.7-1.1-0.7c-0.1-0.1-0.3-0.1-0.5-0.1
		c-0.1,0-0.2,0-0.2,0c-0.2,0-0.2,0-0.2,0c-0.1,0,0.1,0,0.3,0c0.4-0.1,1-0.2,1.6-0.3c1.2-0.3,2.5-0.6,3.8-1
		c5.1-1.4,10.4-2.6,15.7-3.3c5.3-0.7,10.6-1,15.9-0.7c5.2,0.3,10.4,1.3,15.2,2.8c2.4,0.8,4.7,1.7,7,2.8l0.4,0.2l0.1,0
		c0.1,0-0.1-0.1,0,0l0.2,0.1l0.8,0.3c0.5,0.2,1.1,0.5,1.6,0.7c1.1,0.5,2.1,0.9,3.2,1.4c1,0.3,2,0.7,3.1,1c0.5,0.2,1,0.3,1.5,0.5
		c0.5,0.2,1,0.3,1.5,0.5c1,0.3,2.1,0.5,3.1,0.8c1,0.3,2.1,0.6,3.1,0.7c1,0.2,2.1,0.4,3.1,0.6c1,0.2,2,0.4,3,0.5c2,0.3,4,0.6,6,0.8
		c7.8,0.8,15.1,0.9,21.6,0.8c6.5-0.1,12.1-0.4,16.8-0.5c4.7-0.2,8.4-0.3,10.9-0.2C144.7,57.4,145.4,57.4,145.9,57.4z M147.7,60.2
		c0,0-0.3,0-0.9,0c-0.6,0-1.5-0.1-2.8,0c-2.4,0-6.1,0.2-10.7,0.6c-4.7,0.4-10.3,0.8-16.9,1.1c-6.5,0.3-14,0.5-22.1-0.1
		c-2-0.1-4.1-0.4-6.2-0.6c-1.1-0.1-2.1-0.3-3.2-0.4c-1.1-0.2-2.2-0.3-3.2-0.5c-1.1-0.1-2.2-0.4-3.3-0.7c-1.1-0.2-2.2-0.5-3.3-0.7
		c-0.6-0.1-1.1-0.3-1.7-0.4c-0.6-0.2-1.1-0.3-1.7-0.5c-1.1-0.3-2.3-0.7-3.4-1c-1.1-0.4-2.1-0.8-3.2-1.3c-0.5-0.2-1.1-0.4-1.6-0.6
		l-0.8-0.3l-0.2-0.1l-0.3-0.1l-0.4-0.2c-2-0.9-4.2-1.7-6.4-2.3c-4.4-1.3-9-1.9-13.8-2.1c-4.8-0.1-9.6,0.3-14.5,1.1
		c-4.9,0.8-9.8,2.1-14.7,3.6c-1.3,0.4-2.5,0.8-3.9,1.1c-0.7,0.2-1.4,0.4-2.2,0.5c-0.4,0.1-0.9,0.2-1.7,0.2c-0.2,0-0.4,0-0.7-0.1
		c-0.2,0-0.3,0-0.5-0.1c-0.2-0.1-0.5-0.1-0.7-0.2c-0.1,0-0.9-0.5-1.3-0.8c-0.6-0.6-0.4-0.5-0.5-0.5C1,55,0,53.3,0.2,53.4
		C0,52.9,0,52.6,0,52.4c0-0.2,0-0.5,0-0.6l0-0.4c0-0.3,0.1-0.4,0.1-0.6c0-0.2,0.1-0.3,0.1-0.5l0.1-0.4c0.2-0.5,0.3-0.8,0.5-1.2
		c0.3-0.7,0.7-1.4,1-2C2.6,45.4,3.3,44.2,4,43c2.8-4.7,5.8-9.2,9-13.6c3.3-4.3,6.7-8.5,10.4-12.6c1.9-2,3.8-4,5.9-5.9
		c0.5-0.5,1.1-1,1.7-1.4c0.3-0.2,0.7-0.5,1-0.7l0.4-0.3L33,8.2c0.6-0.4,1.3-0.8,1.9-1.1l1.9-1C47.1,1.2,58.1-0.1,68.4,0
		c5.2,0.1,10.2,0.6,15.1,1.3c2.4,0.4,4.9,0.8,7.2,1.3c0.6,0.1,1.1,0.2,1.7,0.4l0.9,0.2l0.5,0.1l0.4,0.1c1.1,0.3,2.3,0.6,3.4,0.9
		c9,2.3,17.4,4.9,24.9,8.5c3.7,1.8,7.2,3.8,10.2,6.5c0.7,0.7,1.4,1.4,2.1,2.2c0.3,0.4,0.6,0.8,0.9,1.2c0.2,0.2,0.2,0.4,0.4,0.6
		l0.2,0.3l0.2,0.3c0.9,1.6,1.6,3.2,2.2,4.7c1.3,3.1,2.3,5.9,3.3,8.6c0.5,1.3,1,2.6,1.4,3.8c0.2,0.6,0.4,1.2,0.7,1.8
		c0.2,0.6,0.4,1.2,0.6,1.7l5.3,15.7L147.7,60.2z"/>
</g>
</svg>
