<svg version="1.1" xmlns="http://www.w3.org/2000/svg" xmlns:xlink="http://www.w3.org/1999/xlink" width="201.23929" height="256.56729"><g id="SILOSEAM" fill="none" fill-rule="none" stroke="#000000" stroke-width="1" stroke-linecap="butt" stroke-linejoin="miter" stroke-miterlimit="10" stroke-dasharray="" stroke-dashoffset="0" font-family="none" font-weight="none" font-size="none" text-anchor="none" style="mix-blend-mode: normal"><g id="temp"><path d="M0,256.56729v-256.56729h201.23929v256.56729z" data-paper-data="{&quot;height&quot;:0}" id="BACKGROUND" fill-rule="nonzero"/><path d="M138.91365,12.80465l4.534,2.925l4.268,3.214l3.316,2.936l3.649,3.805l3.351,4.066l3.046,4.333l2.749,4.553l2.357,4.709l1.64,3.92l1.728,4.964l1.637,6.322l1.295,8.374l0.334,5.254l-0.173,7.409l-0.373,4.242l-0.802,5.089l-1.19,5.11l-1.264,4.174l-3.692,8.879l-2.537,4.657l-2.287,3.785l-1.031,1.399l2.328,3.562l1.216,2.281l2.099,4.929l1.587,5.174l1.046,5.023l2.692,15.657l0.948,3.115l0.594,1.246l0.632,0.764l0.721,0.568l1.693,0.648l1.462,0.333l7.249,0.752l3.989,1.218l2.923,1.68l1.997,1.6l2.713,3.244l1.277,2.222l0.912,2.374l0.858,4.081l-0.01,3.455l-0.377,2.554l-0.772,2.425l-0.656,1.514l-1.299,2.302l-2.283,2.661l-1.916,1.646l-3.638,2.035l-2.386,0.848l-8.904,1.107l-3.145,0.13l-4.571,-0.101l-5.313,-0.674l-6.192,-1.587l-3.145,-1.251l-3.051,-1.548l0.254,2.236l-0.162,2.555l-1.06,4.058l-1.01,2.242l-2.373,3.393l-1.884,1.914l-2.821,1.998l-2.33,1.172l-3.941,1.068l-2.545,0.24l-2.503,-0.179l-1.66,-0.287l-2.454,-0.722l-4.865,-2.337l-3.585,-2.25l-0.021,14.827l1.23,0.68l1.444,1.55l0.562,1.356l0.12,23.201l-0.347,1.427l-0.811,1.223l-1.179,0.875l-2.114,0.582l-32.377,-0.024l-1.47,-0.317l-1.285,-0.711l-0.966,-1.105l-0.533,-1.368l-0.047,-23.388l0.439,-1.401l1.32,-1.588l1.536,-0.957v-14.681l-2.735,1.74l-5.801,2.767l-2.427,0.722l-2.601,0.325l-4.177,-0.21l-2.613,-0.711l-3.166,-1.396l-3.439,-2.568l-1.774,-1.844l-1.495,-2.162l-1.544,-3.092l-1,-3.979l-0.22,-2.544l0.174,-2.263l-2.524,1.279l-4.01,1.562l-4.295,1.167l-3.367,0.631l-5.192,0.4l-6.505,-0.111l-5.254,-0.546l-2.494,-0.445l-2.42,-0.734l-2.341,-1.069l-2.156,-1.453l-3.018,-2.921l-1.431,-2.092l-1.719,-3.741l-0.759,-3.51l-0.171,-2.56l0.215,-2.529l1.048,-4.025l1.587,-3.135l1.427,-2.013l1.836,-1.884l3.416,-2.407l2.342,-1.038l2.472,-0.691l8.047,-0.946l1.918,-0.577l1.242,-0.623l1.185,-1.335l0.819,-2.103l3.91,-21.32l1.426,-5.099l1.951,-4.996l4.176,-7.228l-2.151,-3.13l-3.132,-5.474l-1.765,-3.657l-1.613,-3.908l-2.017,-6.26l-0.991,-4.012l-1.086,-6.251l-0.601,-6.219l-0.082,-4.381l0.444,-7.376l0.788,-5.166l0.864,-4.348l1.386,-5.111l2.984,-7.892l3.921,-7.503l3.456,-5.217l2.767,-3.557l2.907,-3.266l4.547,-4.283l4.118,-3.281l4.366,-2.936l3.847,-2.206l4.798,-2.3l4.906,-1.921l5.962,-1.85l6.236,-1.315l5.268,-0.774l5.367,-0.365l4.091,-0.092l5.44,0.222l3.982,0.414l6.441,1.092l6.037,1.567l6.907,2.459l4.831,2.151z" data-paper-data="{&quot;height&quot;:4}" id="MOLD_WALL" fill-rule="nonzero"/><path d="M78.66865,206.13165l-4.835,2.422l-2.417,0.726l-2.494,0.281l-2.513,-0.189l-2.436,-0.656l-2.268,-1.081l-2.031,-1.455l-1.743,-1.771l-1.418,-2.032l-1.058,-2.242l-0.659,-2.401l-0.235,-2.494l0.219,-2.507l0.691,-2.427l1.126,-2.258l1.546,-2.051l3.967,-3.275l1.072,-1.189l0.745,-1.27l0.978,-2.975l0.272,-3.491l-0.291,-4.94l-1.846,4.072l-3.161,5.6l-3.269,4.242l-2.346,2.353l-3.409,2.735l-3.791,2.187l-4.99,1.947l-3.273,0.831l-3.165,0.6l-5.316,0.386l-5.226,-0.12l-6.202,-0.653l-2.408,-0.589l-2.274,-1.011l-2.072,-1.415l-1.78,-1.773l-1.429,-2.067l-1.032,-2.276l-0.619,-2.407l-0.202,-2.459l0.208,-2.457l0.617,-2.394l1.023,-2.263l1.417,-2.059l1.773,-1.773l2.081,-1.424l2.301,-1.018l2.424,-0.588l6.941,-0.668l2.492,-0.657l2.668,-1.338l1.497,-1.518l0.903,-1.366l1.182,-3.113l1.445,-7.579l1.101,-6.91l1.349,-7.066l1.459,-5.083l1.576,-3.891l3.202,-5.77l2.43,-3.132l-3.413,-4.709l-3.172,-5.454l-1.835,-3.768l-1.589,-3.842l-1.904,-5.922l-0.992,-4.053l-0.901,-5.101l-0.62,-6.221l-0.081,-4.144l0.44,-7.298l1.135,-7.213l1.6,-6.03l1.354,-3.959l1.593,-3.875l3.302,-6.443l3.487,-5.304l2.554,-3.299l2.755,-3.12l4.573,-4.312l3.295,-2.638l4.315,-2.921l3.645,-2.092l4.678,-2.246l2.93,-1.207l3.919,-1.363l3.987,-1.134l6.131,-1.232l4.127,-0.559l4.195,-0.319l4.998,-0.113l4.704,0.197l4.117,0.429l5.157,0.836l4.036,0.943l3.977,1.171l5.93,2.229l3.773,1.747l3.661,1.983l4.414,2.877l3.328,2.518l3.141,2.758l2.923,2.966l2.725,3.151l2.53,3.338l2.864,4.375l2.009,3.647l1.793,3.791l1.555,3.888l1.317,3.971l1.3,5.014l0.616,3.119l0.698,5.131l0.331,5.164l-0.03,5.178l-0.401,5.217l-0.791,5.176l-1.195,5.116l-1.209,3.968l-2.678,6.706l-1.871,3.749l-3.218,5.432l-3.051,4.134l2.385,3.037l2.232,3.591l2.182,4.921l1.586,5.061l1.269,6.102l2.467,14.649l0.987,3.471l1.055,2.244l0.925,1.235l0.909,0.887l1.294,0.888l1.522,0.653l2.477,0.65l7.929,0.796l2.455,0.788l2.214,1.206l1.953,1.596l1.625,1.918l1.255,2.161l0.861,2.328l0.46,2.427l0.052,2.47l-0.362,2.45l-0.783,2.37l-1.192,2.21l-1.593,1.954l-1.928,1.628l-2.183,1.244l-2.385,0.849l-7.455,0.893l-3.165,0.146l-4.192,-0.072l-5.334,-0.661l-5.266,-1.371l-2.842,-1.129l-4.014,-2.059l-3.542,-2.594l-3.795,-3.815l-3.23,-4.364l-2.624,-4.682l-1.918,-4.435l-0.338,4.938l0.174,2.7l0.748,3.126l0.639,1.439l0.929,1.196l3.534,2.9l1.741,1.836l1.357,2.107l0.949,2.336l0.627,3.727l-0.183,2.498l-0.617,2.41l-1.013,2.26l-1.373,2.058l-1.707,1.805l-2.001,1.493l-2.244,1.124l-2.417,0.703l-2.505,0.248l-2.496,-0.218l-2.458,-0.686l-4.869,-2.374l-4.501,-2.959l-4.825,-4.229l-0.04053,27.77117l3.34053,-0.00317l0.031,3.817v18.861h-32.67v-22.647l3.331,-0.00316v-27.58284l-1.157,1.174l-4.193,3.371z" data-paper-data="{&quot;height&quot;:2}" id="SEAM_STEP" fill-rule="nonzero"/><path d="M102.18265,9.90565l4.326,0.218l4.31,0.472l4.277,0.729l4.237,0.99l4.173,1.256l4.097,1.527l3.998,1.806l3.876,2.086l3.731,2.374l3.552,2.657l3.234,2.839l3.097,3.147l2.856,3.362l2.6,3.551l2.342,3.726l2.071,3.87l1.8,3.998l1.524,4.101l1.251,4.186l0.976,4.256l0.702,4.301l0.428,4.334l0.155,4.351l-0.115,4.353l-0.388,4.335l-0.657,4.305l-0.94,4.288l-1.235,4.195l-1.498,4.102l-1.768,4.004l-2.04,3.884l-2.306,3.74l-4.339,5.879l3.147,3.69l2.545,4.07l1.937,4.263l1.42,4.306l1.031,4.264l2.398,14.934l0.75,3.537l0.995,3.124l1.302,2.587l1.667,2.036l2.101,1.539l2.603,1.117l3.081,0.724l7.32,0.664l1.944,0.63l1.841,1.019l1.607,1.36l1.288,1.606l0.948,1.754l0.62,1.833l0.314,1.873l0.017,1.899l-0.289,1.902l-0.615,1.878l-0.97,1.799l-1.324,1.622l-1.62,1.34l-1.807,0.983l-1.833,0.605l-4.811,0.643l-4.375,0.268l-4.479,-0.066l-4.578,-0.508l-4.632,-1.089l-4.554,-1.811l-2.184,-1.204l-2.077,-1.395l-1.941,-1.571l-3.395,-3.54l-2.743,-3.852l-2.2,-3.959l-3.38,-7.816l-2.443,-6.318l-1.086,6.743l-0.673,5.564l-0.136,3.462l0.214,3.279l0.641,2.933l1.098,2.471l1.585,2.034l3.869,3.05l1.326,1.544l1.046,1.832l0.667,2.018l0.255,2.072l-0.13,2.023l-0.467,1.91l-0.757,1.768l-1.028,1.622l-1.294,1.45l-1.553,1.239l-1.8,0.97l-1.988,0.627l-2.076,0.234l-2.03,-0.159l-1.849,-0.478l-4.557,-2.203l-3.904,-2.498l-3.605,-2.937l-3.237,-3.317l-2.933,-3.767l0,35.49983l-20.338,0.01932v-35.23414l-2.58,3.305l-3.216,3.336l-3.587,2.956l-3.892,2.522l-4.419,2.193l-1.783,0.533l-2.024,0.233l-2.086,-0.157l-2.019,-0.559l-1.84,-0.913l-1.599,-1.195l-1.34,-1.411l-1.078,-1.589l-0.811,-1.747l-0.523,-1.891l-0.193,-2.003l0.181,-2.069l0.591,-2.032l0.972,-1.866l1.267,-1.593l3.57,-2.817l1.729,-1.917l1.225,-2.336l0.763,-2.823l0.32,-3.171l-0.049,-3.479l-0.576,-5.525l-1.201,-7.726l-4.378,10.999l-1.882,3.954l-2.304,3.949l-2.876,3.804l-1.686,1.784l-1.851,1.657l-2.003,1.499l-2.128,1.316l-2.218,1.117l-4.589,1.648l-4.625,0.951l-4.559,0.401l-4.458,-0.012l-4.351,-0.328l-3.64,-0.494l-1.808,-0.549l-1.817,-0.922l-1.65,-1.28l-1.372,-1.57l-1.031,-1.763l-0.682,-1.864l-0.35,-1.9l-0.042,-1.904l0.26,-1.89l0.569,-1.855l0.899,-1.78l1.241,-1.638l1.565,-1.405l1.81,-1.07l1.924,-0.687l1.85,-0.312l3.997,-0.201l3.266,-0.51l2.889,-0.9l2.393,-1.307l1.886,-1.73l1.51,-2.283l1.166,-2.846l0.864,-3.303l2.495,-15.658l0.936,-4.24l1.287,-4.302l1.766,-4.288l2.354,-4.149l2.971,-3.828l1.086,-1.137l-2.344,-2.917l-2.524,-3.603l-2.262,-3.765l-1.995,-3.91l-1.721,-4.031l-1.445,-4.134l-1.163,-4.204l-0.897,-4.265l-0.624,-4.316l-0.348,-4.343l-0.074,-4.356l0.201,-4.352l0.474,-4.33l0.75,-4.3l1.025,-4.242l1.299,-4.172l1.574,-4.084l1.85,-3.978l2.12,-3.846l2.387,-3.693l2.651,-3.521l2.902,-3.325l3.142,-3.107l3.387,-2.875l3.597,-2.597l3.764,-2.308l3.908,-2.024l4.024,-1.743l4.116,-1.465l4.186,-1.195l4.249,-0.933l4.286,-0.67l4.316,-0.415z" data-paper-data="{&quot;height&quot;:0}" id="SEAM" fill-rule="nonzero"/><path d="M139.86468,28.98315c17.4,14.7 23.8,38.9 18.4,60.7c-2.7,10.5 -8,20.2 -16.1,27.9c11.1,7.4 12.8,19.2 14.4,30.7c1.8,12.2 3.4,24.8 23.7,25.1c6.8,0.1 7.5,10.3 0.7,11.3c-28.2,4 -33.6,-10.8 -39.2,-25.4c-2.5,-6.6 -5.1,-13.3 -11.3,-17.3c0.6,5.5 -0.4,11.7 -1.4,18c-1.9,11.1 -3.8,24 6.6,30.7c5.8,3.7 0.9,12.6 -5.4,9.8c-17.03597,-7.66619 -21.62096,-24.28992 -25.2,-39.44349l0,68.64349h9v17.00787h-27v-17.00787l9,0v-67.79994c-3.55317,14.92282 -8.2796,31.07576 -25,38.59994c-6.2,2.8 -11.2,-6 -5.4,-9.8c10.4,-6.7 8.4,-19.6 6.6,-30.7c-1,-6.3 -2,-12.5 -1.4,-18c-6.2,4 -8.8,10.8 -11.3,17.3c-5.6,14.6 -11,29.4 -39.2,25.4c-6.8,-1 -6.2,-11.2 0.7,-11.3c20.3,-0.3 22,-12.9 23.7,-25.1c1.6,-11.5 3.3,-23.3 14.4,-30.7c-8.1,-7.7 -13.5,-17.5 -16.1,-27.9c-5.5,-21.7 0.9,-46 18.3,-60.7c21.3,-17.9 57.2,-17.9 78.5,0z" id="SEPARATOR" fill-rule="evenodd"/></g></g></svg>