<?xml version="1.0" encoding="utf-8"?>
<!-- Generator: Adobe Illustrator 22.0.1, SVG Export Plug-In . SVG Version: 6.00 Build 0)  -->
<svg version="1.1" id="Layer_1" xmlns="http://www.w3.org/2000/svg" xmlns:xlink="http://www.w3.org/1999/xlink" x="0px" y="0px"
	 viewBox="0 0 154.2 514" style="enable-background:new 0 0 154.2 514;" xml:space="preserve">
<style type="text/css">
	.st0{fill:none;stroke:#000000;stroke-miterlimit:10;}
</style>
<path id="BG" class="st0" d="M0.5,513.5c0-0.5,0-1,0-1.5c0-1.5,0-2.9,0-4.4c0-2.4,0-4.7,0-7.1c0-3.2,0-6.4,0-9.6c0-4,0-8,0-11.9
	c0-4.7,0-9.4,0-14c0-5.3,0-10.6,0-16c0-5.9,0-11.8,0-17.7c0-6.4,0-12.8,0-19.2c0-6.8,0-13.7,0-20.5c0-7.2,0-14.4,0-21.7
	c0-7.5,0-15,0-22.5c0-7.8,0-15.6,0-23.3c0-8,0-15.9,0-23.9c0-8.1,0-16.2,0-24.2c0-8.1,0-16.3,0-24.4c0-8.1,0-16.2,0-24.3
	c0-8,0-16.1,0-24.1c0-7.9,0-15.8,0-23.7c0-7.7,0-15.4,0-23c0-7.4,0-14.8,0-22.2c0-7.1,0-14.1,0-21.2c0-6.6,0-13.3,0-19.9
	c0-6.2,0-12.3,0-18.5c0-5.6,0-11.3,0-16.9c0-5,0-10.1,0-15.1c0-4.4,0-8.7,0-13.1c0-3.6,0-7.3,0-10.9c0-2.8,0-5.7,0-8.5
	c0-2,0-3.9,0-5.9c0-1,0-2.1,0-3.1c0-0.7,0.3-0.4,1.1-0.4c2.9,0,5.9,0,8.8,0c5.3,0,10.6,0,16,0c7,0,13.9,0,20.9,0
	c7.9,0,15.8,0,23.7,0c8.1,0,16.1,0,24.2,0c7.5,0,15,0,22.6,0c6.2,0,12.5,0,18.7,0c4.2,0,8.5,0,12.7,0c1.1,0,2.3,0,3.4,0
	c0.2,0,0.9-0.1,1.1,0c0.2,0.2,0,1.4,0,1.6c0,1.5,0,3,0,4.5c0,2.4,0,4.8,0,7.2c0,3.2,0,6.5,0,9.7c0,4,0,8,0,12c0,4.7,0,9.4,0,14.1
	c0,5.3,0,10.7,0,16c0,5.9,0,11.8,0,17.7c0,6.4,0,12.8,0,19.3c0,6.9,0,13.7,0,20.6c0,7.2,0,14.4,0,21.6c0,7.5,0,15.1,0,22.6
	c0,7.8,0,15.6,0,23.4c0,8,0,15.9,0,23.9c0,8.1,0,16.2,0,24.2c0,8.1,0,16.3,0,24.4c0,8.1,0,16.2,0,24.3c0,8,0,16.1,0,24.1
	c0,7.9,0,15.8,0,23.6c0,7.7,0,15.3,0,23c0,7.4,0,14.8,0,22.2c0,7,0,14.1,0,21.1c0,6.6,0,13.3,0,19.9c0,6.2,0,12.3,0,18.5
	c0,5.6,0,11.2,0,16.8c0,5,0,10,0,15c0,4.3,0,8.7,0,13c0,3.6,0,7.2,0,10.8c0,2.8,0,5.6,0,8.4c0,1.9,0,3.9,0,5.8c0,1,0.1,2,0,3
	c0,0.1,0,0.3,0,0.4c-0.1,0.1-1.1,0-1.2,0c-3,0-6.1,0-9.1,0c-5.4,0-10.8,0-16.2,0c-7,0-14,0-21.1,0c-7.9,0-15.8,0-23.7,0
	c-8.1,0-16.1,0-24.2,0c-7.5,0-15,0-22.5,0c-6.2,0-12.4,0-18.5,0c-4.1,0-8.3,0-12.4,0C3.3,513.5,1.9,513.5,0.5,513.5z"/>
<path id="MOLD_WALL" class="st0" d="M149.5,337.1c0.4,2.1,1.2,4,1.2,6.2c0,0.8,0,1.7,0,2.5c0,4.4,0,8.8,0,13.2c0,7.4,0,14.8,0,22.1
	c0,8.6,0,17.1,0,25.7c0,7.9,0,15.9,0,23.8c0,5.6,0,11.2,0,16.8c0,2.4,0.2,4.9-0.2,7.3c-0.2,1-0.7,2.1-0.6,3.1c0,1.4,0.3,2.7,0.5,4.1
	c0.2,1.9,0.4,3.8,0.4,5.7c0,7.1,0,14.3,0,21.4c0,2.6,0,5.2,0,7.7c0,1.2-0.2,2.3-0.7,3.3c-0.9,1.8-2.4,3.1-3.8,4.5
	c-1.6,1.6-3.2,3.6-5.2,4.9c-1.8,1.2-3.9,1.1-5.9,1.1c-4.3,0-8.6,0-12.9,0c-7.2,0-14.4,0-21.6,0c-8.5,0-17,0-25.4,0
	c-8.3,0-16.5,0-24.8,0c-6.4,0-12.9,0-19.3,0c-3,0-6.1,0-9.1,0c-4.4,0-8.9-0.8-13.2-1.3c-2.3-0.3-4.8-2.3-5.3-4.6
	c-0.4-1.6-0.2-3.5-0.2-5.1c0-4.1,0-8.2,0-12.3c0-6.4,0-12.8,0-19.3c0-7.9,0-15.8,0-23.7c0-8.6,0-17.1,0-25.7c0-8.4,0-16.9,0-25.3
	c0-7.5,0-14.9,0-22.4c0-5.7,0-11.4,0-17c0-3.1,0-6.1,0-9.2c0-0.7,0-1.4,0-2.1c0.1-0.9,0.2-1.7,0.5-2.6c0.2-0.7,0.3-1.3,0.5-2
	c0.2-0.7,0.1-0.8-0.3-1.4c-0.7-1.2-0.7-2.7-0.7-4.1c0-1.9,0-3.9,0-5.8c0-7.5,0-15.1,0-22.6c0-1.5-0.1-3,0.2-4.5
	c0.2-0.9,0.9-1.7,1-2.6c0.1-0.5-0.2-1.1-0.3-1.6c-0.2-0.8-0.4-1.5-0.6-2.3c-0.3-1.4-0.4-2.8-0.4-4.2c0-3.1,0-6.3,0-9.4
	c0-6.5-0.1-13,0-19.6c0-0.6,0.1-1.3,0.2-1.9c0.1-0.2,0.1-0.5,0.2-0.7c0.3-0.7,0.3-1,0.2-1.7c-0.3-2.5-0.6-4.9-0.6-7.4
	c0-1.8,0-3.6,0-5.4c0-4.7,0-9.4,0-14.1c0-6.8,0-13.7,0-20.5c0-8.2,0-16.3,0-24.5c0-8.6,0-17.3,0-25.9c0-8.3,0-16.6,0-24.9
	c0-7.1,0-14.2,0-21.3c0-5.1,0-10.2,0-15.4c0-2.3,0-4.6,0-6.9c0-2.4,0.9-4.7,2.8-6.1c0.8-0.6,1.6-0.8,2.6-0.8c1.7,0,3.3,0,5,0
	c7.8,0,15.6,0,23.4,0c6,0,12,0,18,0c0.3,0,0.4,0.1,0.5-0.1c0.2-0.3,0-1.2,0-1.5c0-2.5,0-4.9,0-7.4c0-8,0-16.1,0-24.1
	c0-7.1,0-14.3,0-21.4c0-2.1-0.5-4.8,0.8-6.6c0.7-0.9,1.7-1.7,2.8-2C59.8,19,60.4,19,61,19c0.5,0,1.2,0.2,1.4-0.2
	c0.2-0.4,0-1.4,0-1.8c0-3.1-0.1-6.3,0-9.4c0-1,0.4-2,1.1-2.7c0.7-0.7,1.6-1.2,2.6-1.4c1.9-0.3,4-0.1,5.9-0.1c4,0,8,0,12,0
	c1.5,0,3.1-0.1,4.6,0.3c2.1,0.6,3.1,2.4,3.1,4.4c0,3.4,0,6.9,0,10.3c0,0.6-0.1,0.5,0.5,0.5c0.6,0,1.3,0,2,0c0.5,0,1,0.1,1.4,0.3
	c1.9,0.8,2.9,2.9,2.9,4.8c0,4.9,0,9.8,0,14.8c0,8.4,0,16.8,0,25.2c0,5.8,0,11.5,0,17.3c0,0.1-0.1,0.8,0,0.9c0.1,0.1,1.2,0,1.4,0
	c3,0,6,0,9.1,0c7.7,0,15.5,0,23.2,0c1.5,0,3-0.1,4.4,0.1c1.7,0.1,2.7,0.6,4,1.5c2.4,1.6,4.7,3.1,7.1,4.7c1,0.7,2.1,1.5,2.5,2.7
	c0.5,1.2,0.4,2.7,0.5,4c0,2.7,0,5.4,0,8.1c0,7.2,0,14.5,0,21.7c0,0.6,0,1.3,0,1.9c0,1.1-0.3,2.2-0.2,3.3c0.1,1.2,0.2,2.3,0.2,3.5
	c0,4.9,0,9.9,0,14.8c0,8.2,0,16.4,0,24.7c0,7.9,0,15.8,0,23.7c0,3.9,0.1,7.9,0,11.8c0,1.7-0.4,3.2-0.8,4.8c-0.1,0.6-0.4,1.2-0.3,1.8
	c0.1,0.6,0.3,1.3,0.5,1.9c0.2,1,0.5,2,0.6,3c0.2,2.4,0.1,4.8,0.1,7.2c0,5.9,0,11.8,0,17.7c0,8.1,0,16.1,0,24.2c0,8.5,0,17.1,0,25.6
	c0,7.2,0,14.5,0,21.7c0,4.2,0,8.4,0,12.6C150.8,331.9,150.2,334.4,149.5,337.1z"/>
<path id="SEAM_STEP" class="st0" d="M94.3,86.6c3.7,0,7.4,0,11.1,0c6.8,0,13.5,0,20.3,0c3.5,0,7.2-0.2,10.7,0
	c1.1,0.1,1.9,0.8,2.9,1.4c0.9,0.6,1.9,1.3,2.8,1.9c0.9,0.6,1.9,1.2,2.8,1.9c0.4,0.2,1.3,0.6,1.5,1c0.2,0.4,0.1,1.3,0.2,1.7
	c0.2,4.4,0,8.8,0,13.2c0,5.9,0,11.7,0,17.6c0,1.5-0.1,2.9-0.2,4.3c-0.1,1.1,0.2,2.1,0.2,3.2c0,3.4,0,6.8,0,10.2c0,6.1,0,12.2,0,18.3
	c0,6.9,0,13.8,0,20.8c0,5.9,0,11.9,0,17.8c0,3.1,0.1,6.1,0,9.2c0,1.4-0.5,2.9-0.9,4.3c-0.1,0.5-0.3,1-0.4,1.5
	c-0.1,0.6,0.1,1.1,0.3,1.7c0.3,1.1,0.6,2.1,0.8,3.2c0.4,1.7,0.2,3.5,0.2,5.3c0,4.1,0,8.2,0,12.3c0,5.9,0,11.9,0,17.8
	c0,6.8,0,13.7,0,20.5c0,6.9,0,13.8,0,20.7c0,6,0,12,0,17.9c0,4.2,0,8.3,0,12.5c0,1.7,0.2,3.5-0.1,5.3c-0.2,1.1-0.5,2.1-0.8,3.2
	c-0.1,0.5-0.3,1-0.4,1.6c-0.1,0.6,0.1,1.1,0.2,1.6c0.4,1.7,1,3.5,1,5.3c0,2,0,3.9,0,5.9c0,4.6,0,9.1,0,13.7c0,6.2,0,12.4,0,18.6
	c0,7,0,13.9,0,20.9c0,6.8,0,13.5,0,20.3c0,5.6,0,11.2,0,16.8c0,3.6,0,7.1,0,10.7c0,0.7,0,1.4,0,2.1c0,1.6-0.5,3-0.8,4.5
	c-0.2,1,0.1,2.2,0.2,3.2c0.1,1.1,0.2,2.1,0.4,3.2c0.2,1.4,0.2,2.9,0.2,4.3c0,5.8,0,11.7,0,17.5c0,3,0,6,0,9c0,1.1,0.3,2.7-0.1,3.8
	c-0.3,0.9-0.9,1.4-1.6,2.1c-1.2,1.2-2.3,2.3-3.5,3.5c-1.1,1.1-2.1,2.6-3.7,2.8c-0.6,0.1-1.2,0-1.8,0c-1.3,0-2.6,0-4,0
	c-4.4,0-8.7,0-13.1,0c-6,0-12.1,0-18.1,0c-6.9,0-13.8,0-20.6,0c-6.9,0-13.7,0-20.6,0c-6.1,0-12.2,0-18.3,0c-4.5,0-9,0-13.5,0
	c-2,0-4.1,0-6.1,0c-3.7,0-7.5-0.7-11.1-1.1c-0.5-0.1-1.2,0-1.6-0.2c-0.3-0.2-1-1-1.2-1.4c0-0.1,0-0.2,0-0.2c-0.1-0.5,0-1.2,0-1.7
	c0-2.7,0-5.4,0-8.1c0-4.4,0-8.8,0-13.2c0-5.7,0-11.3,0-17c0-6.5,0-13.1,0-19.6c0-7,0-13.9,0-20.9c0-6.9,0-13.8,0-20.8
	c0-6.5,0-13,0-19.5c0-5.6,0-11.3,0-16.9c0-4.3,0-8.7,0-13c0-2.6,0-5.2,0-7.8c0-2,0.4-3.7,0.9-5.7c0.1-0.6,0.3-1.2,0.4-1.8
	c0.1-0.6,0.2-0.8-0.1-1.3c-0.3-0.5-0.8-1-1-1.5c-0.2-0.5-0.2-1.1-0.2-1.6c0-1.3,0-2.7,0-4c0-6.5,0-12.9,0-19.4c0-2.3,0-4.6,0-6.8
	c0-0.4,0-0.8,0-1.2c0.1-1.2,0.6-2.2,1-3.3c0.2-0.6,0.5-0.9,0.3-1.5c-0.1-0.5-0.2-1-0.4-1.5c-0.3-1.1-0.6-2.2-0.8-3.3
	c-0.3-1.3-0.2-2.6-0.2-3.9c0-6.2,0-12.5,0-18.7c0-2.7,0-5.4,0-8.1c0-0.6-0.1-1.3,0-1.9c0.1-0.7,0.7-1.3,0.9-1.9
	c0.1-0.4-0.1-1.1-0.2-1.5c-0.1-0.6-0.1-1.2-0.2-1.7c-0.1-1.1-0.2-2.1-0.4-3.2c-0.1-0.8-0.2-1.7-0.2-2.5c0-1.9,0-3.8,0-5.7
	c0-3.8,0-7.6,0-11.3c0-5.2,0-10.4,0-15.6c0-6.3,0-12.5,0-18.8c0-6.8,0-13.7,0-20.5c0-7,0-14,0-21c0-6.7,0-13.4,0-20.1
	c0-6,0-12.1,0-18.1c0-4.9,0-9.8,0-14.7c0-3.3,0-6.7,0-10c0-1.3-0.2-2.7,0-4c0.1-0.3,0.4-1.7,0.7-1.9c0.1-0.1,0.6,0,0.8,0
	c1.7,0,3.4,0,5,0c6.2,0,12.3,0,18.5,0c6.5,0,12.9,0,19.4,0c2,0,4,0,6.1,0c0.3,0,1.5,0.2,1.7-0.1c0.1-0.2,0-0.8,0-1c0-0.7,0-1.3,0-2
	c0-2.1,0-4.2,0-6.3c0-6.3,0-12.6,0-18.9c0-6.7,0-13.4,0-20.2c0-4.4,0-8.9,0-13.3c0-0.4-0.2-1.4,0.1-1.6c0.3-0.2,1.1,0,1.4,0
	c0.8,0,1.6,0,2.4,0c1,0,2.1,0,3.1,0c-0.3-1.5-0.1-3.1-0.1-4.7c0-2.7,0-5.4,0-8.1c0-0.7-0.2-1.8,0-2.5c0.1-0.4-0.1-0.2,0.3-0.3
	c0.7-0.1,1.5,0,2.2,0c1.2,0,2.3,0,3.5,0c4.8,0,9.6,0,14.3,0c0.4,0,0.4-0.1,0.5,0.2c0.2,0.4,0,1.6,0,2.1c0,2.7,0,5.4,0,8.1
	c0,1.3,0,2.6,0,3.9c0,0.3-0.1,1.2,0.1,1.3c0.2,0.2,1.1,0,1.3,0c0.7,0,1.5,0,2.2,0c1.1,0,2.1,0,3.2,0c0,7.2,0,14.3,0,21.5
	c0,11.4,0,22.8,0,34.1C94.3,81.4,94.3,84,94.3,86.6z"/>
<path id="SEAM" class="st0" d="M143.7,215.1c0.5,1.8,1.2,3.8,1.4,5.7c0.1,0.7,0,1.4,0,2.1c0,3.8,0,7.6,0,11.4c0,6.1,0,12.2,0,18.2
	c0,7.3,0,14.6,0,21.9c0,7.4,0,14.7,0,22.1c0,6.3,0,12.7,0,19c0,4.2,0,8.5,0,12.7c0,1,0,1.9,0,2.9c0,1.4-0.6,2.8-0.9,4.1
	c-0.3,1.1-0.5,1.8-0.3,2.8c0.4,1.5,0.9,3,1.1,4.5c0.1,0.5,0.1,0.9,0.1,1.4c0,3.3,0,6.7,0,10c0,5.8,0,11.6,0,17.4
	c0,7.2,0,14.4,0,21.6c0,7.4,0,14.8,0,22.2c0,6.6,0,13.1,0,19.7c0,4.6,0,9.3,0,13.9c0,1.8,0.2,3.8-0.2,5.6c-0.3,1-0.7,2.1-0.7,3.2
	c0.1,1.6,0.4,3.2,0.5,4.8c0.2,1.5,0.4,3,0.4,4.5c0,6.3,0,12.6,0,19c0,3.1,0,6.1,0,9.2c0,0.8,0,1.6,0,2.4c0,0.5-0.1,0.5-0.5,0.9
	c-1.1,1.1-2.3,2.3-3.4,3.4c-1,1-1.9,2.2-3,3c-0.4,0.3-0.7,0.2-1.2,0.2c-3.1,0-6.2,0-9.4,0c-5.5,0-11.1,0-16.6,0c-7,0-14,0-21.1,0
	c-7.5,0-14.9,0-22.4,0c-6.9,0-13.9,0-20.8,0c-5.5,0-10.9,0-16.4,0c-2.9,0-5.9,0-8.8,0c-0.5,0-1,0-1.6-0.1c-3.2-0.4-6.4-0.7-9.6-1.1
	C9.4,503.7,9,504,9,503.2c0-0.8,0-1.6,0-2.3c0-3.3,0-6.5,0-9.8c0-5.1,0-10.2,0-15.4c0-6.4,0-12.8,0-19.2c0-7.2,0-14.5,0-21.7
	c0-7.5,0-14.9,0-22.4c0-7.2,0-14.4,0-21.7c0-6.5,0-12.9,0-19.4c0-5.1,0-10.3,0-15.4c0-3.3,0-6.7,0-10c0-1.5-0.1-2.8,0.3-4.3
	c0.4-1.6,0.8-3.2,1.2-4.8c0.3-1.1-0.9-1.8-1.4-2.8C9,333.6,9,333.3,9,332.8c0-1,0-2,0-2.9c0-6.9,0-13.8,0-20.7c0-2.4,0-4.9,0-7.3
	c0-0.4,0-0.7,0.1-1.1c0.2-0.7,0.6-1.4,0.9-2.1c0.2-0.4,0.6-1,0.6-1.4c0-0.4-0.2-1-0.3-1.4c-0.2-0.9-0.4-1.7-0.6-2.6
	c-0.2-0.8-0.5-1.7-0.6-2.5c-0.2-1.8,0-3.7,0-5.5c0-7,0-13.9,0-20.9c0-1.2,0-2.4,0-3.6c0-0.5-0.1-1.2,0-1.7c0.2-0.8,1-1.1,0.9-1.9
	c-0.1-1.6-0.4-3.2-0.5-4.8C9.2,250.6,9,248.8,9,247c0-3.1,0-6.2,0-9.3c0-5,0-9.9,0-14.9c0-6.4,0-12.7,0-19.1c0-7.2,0-14.3,0-21.5
	c0-7.5,0-14.9,0-22.4c0-7.3,0-14.6,0-21.9c0-6.5,0-13.1,0-19.6c0-5.3,0-10.6,0-15.9c0-3.5,0-7.1,0-10.6c0-0.9,0-1.9,0-2.8
	c0-0.1-0.1-0.8,0-0.9c0.1-0.1,0.8,0,0.9,0c0.8,0,1.5,0,2.3,0c2.6,0,5.2,0,7.7,0c7.2,0,14.3,0,21.5,0c5.8,0,11.5,0,17.3,0
	c0.4,0,2.2,0.2,2.5,0c0.1-0.1,0-0.7,0-0.8c0-0.7,0-1.3,0-2c0-5.4,0-10.7,0-16.1c0-7.4,0-14.7,0-22.1c0-6.1,0.1-21.1,0.1-21.1
	l31.5-0.2c0,0,0.1,22.4,0.1,29.3c0,7,0,14,0,21c0,2.6,0,5.1,0,7.7c0,1.3-0.2,2.8,0,4.1c0,0.2,0,0.3,0.1,0.4c0.2,0.1,1.1,0,1.3,0
	c2.3,0,4.6,0,6.9,0c7.1,0,14.2,0,21.4,0c3.1,0,6.2,0,9.3,0c1,0,2,0,3.1,0c0.5,0,1.1-0.1,1.6,0c0.4,0.1,0.8,0.4,1.2,0.7
	c1.4,0.9,2.8,1.9,4.2,2.8c0.7,0.5,1.4,0.9,2.1,1.4c0.3,0.2,0.9,0.4,1.1,0.7c0.1,0.2,0.1,0.6,0.1,0.9c0,6,0,12,0,18
	c0,3.4,0,6.7,0,10.1c0,1.6,0.1,3.2,0,4.8c0,0.4-0.1,0.8-0.1,1.2c-0.1,0.7-0.4,1.8-0.3,2.4c0.1,0.4,0.2,0.1,0.4,0.4
	c0,0.1,0,0.2,0,0.2c0.3,1,0,2.3,0,3.3c0,5.2,0,10.3,0,15.5c0,7.2,0,14.4,0,21.6c0,7,0,14.1,0,21.1c0,4.7,0,9.4,0,14.1
	c0,0.7,0.1,1.5,0,2.2C144.9,211.4,144.2,213.3,143.7,215.1z"/>
<path id="SEPARATOR" class="st0" d="M91.3,127.6c0,3.1,0,6.2,0,9.3c0,0.8,0,1.5,0,2.3c0,0.1-0.1,0.7,0,0.8c0.1,0.1,1.1,0,1.3,0
	c6.6,0,13.3,0,19.9,0c6.7,0,13.3,0,20,0c0.2,0,1.2-0.1,1.3,0c0.2,0.2,0,1.2,0,1.4c0,3.3,0,6.6,0,9.9c0,4,0,7.9,0,11.9
	c0,1.3,0,2.6,0,4c0,0.2,0.1,1.1,0,1.2c-0.2,0.2-1.3,0-1.5,0c-1.1,0-2.3,0-3.4,0c-3.5,0-7.1,0-10.6,0c-7.6,0-15.1,0-22.7,0
	c-1,0-2.1,0-3.1,0c-0.2,0-1-0.1-1.1,0c-0.1,0.1,0,0.9,0,1c0,0.8,0,1.6,0,2.4c0,2,0,4,0,6c0,0.7,0,1.4,0,2.1c0,0.1-0.1,0.6,0,0.7
	c0.1,0.1,1.1,0,1.3,0c2.7,0,5.4,0,8.1,0c8,0,15.9,0,23.9,0c2.7,0,5.3,0,8,0c0.2,0,1.1-0.1,1.3,0c0.2,0.2,0,1.3,0,1.5
	c0,7.3,0,14.5,0,21.8c0,1.3,0,2.6,0,3.8c0,0.2,0.1,1,0,1.2c-0.2,0.2-1.3,0-1.5,0c-1.2,0-2.3,0-3.5,0c-7.7,0-15.4,0-23.1,0
	c-3.4,0-6.8,0-10.2,0c-1,0-2,0-3,0c-0.2,0-0.9-0.1-1.1,0c-0.1,0.1,0,0.9,0,1.1c0,0.8,0,1.6,0,2.4c0,2,0,4.1,0,6.1c0,0.7,0,1.4,0,2.1
	c0,0.1-0.1,0.6,0,0.7c0.1,0.1,1.1,0,1.3,0c6.6,0,13.3,0,19.9,0c6.6,0,13.3,0,19.9,0c0.2,0,1.2-0.1,1.3,0c0.2,0.2,0,1.3,0,1.5
	c0,3.3,0,6.6,0,9.9c0,4,0,7.9,0,11.9c0,1.3,0,2.6,0,3.9c0,0.2,0.1,1,0,1.2c-0.2,0.2-1.3,0-1.5,0c-1.2,0-2.3,0-3.5,0
	c-3.6,0-7.1,0-10.7,0c-7.6,0-15.1,0-22.7,0c-1,0-2,0-3.1,0c-0.2,0-0.9-0.1-1.1,0c-0.1,0.1,0,0.9,0,1.1c0,0.8,0,1.6,0,2.5
	c0,2,0,4,0,6c0,0.7,0,1.4,0,2.1c0,0.1-0.1,0.6,0,0.7c0.2,0.1,1.2,0,1.4,0c2.7,0,5.4,0,8.1,0c8,0,15.9,0,23.9,0c2.6,0,5.3,0,7.9,0
	c0.2,0,1.1-0.1,1.2,0c0.2,0.2,0,1.3,0,1.6c0,7.3,0,14.5,0,21.8c0,1.3,0,2.6,0,3.9c0,0.2,0.1,1,0,1.2c-0.2,0.2-1.3,0-1.5,0
	c-1.2,0-2.3,0-3.5,0c-7.7,0-15.4,0-23.1,0c-3.4,0-6.8,0-10.2,0c-1,0-2,0-3.1,0c-0.2,0-0.9-0.1-1.1,0c-0.1,0.1,0,0.9,0,1.1
	c0,0.8,0,1.6,0,2.5c0,2,0,3.9,0,5.9c0,0.7,0,1.5,0,2.2c0,0.1-0.1,0.6,0,0.7c0.1,0.1,1.1,0,1.3,0c6.7,0,13.3,0,20,0
	c6.6,0,13.3,0,19.9,0c0.2,0,1.1-0.1,1.3,0c0.2,0.2,0,1.3,0,1.5c0,3.3,0,6.6,0,9.9c0,3.9,0,7.9,0,11.8c0,1.3,0,2.6,0,3.9
	c0,0.2,0.1,1,0,1.1c-0.2,0.2-1.3,0-1.6,0c-1.2,0-2.3,0-3.5,0c-3.6,0-7.1,0-10.7,0c-7.5,0-15.1,0-22.6,0c-1,0-2,0-3,0
	c-0.2,0-0.9-0.1-1,0c-0.1,0.1,0,1,0,1.2c0,0.8,0,1.6,0,2.4c0,2,0,4,0,6c0,0.7,0,1.4,0,2.2c0,0.1-0.1,0.6,0,0.6c0.2,0.1,1.1,0,1.3,0
	c2.7,0,5.4,0,8.1,0c8,0,15.9,0,23.9,0c2.7,0,5.3,0,8,0c0.2,0,1.1-0.1,1.3,0c0.2,0.2,0,1.3,0,1.5c0,7.3,0,14.5,0,21.8
	c0,1.3,0,2.6,0,3.9c0,0.2,0.1,1,0,1.1c-0.2,0.2-1.3,0-1.6,0c-1.2,0-2.3,0-3.5,0c-7.7,0-15.4,0-23.1,0c-3.4,0-6.8,0-10.2,0
	c-1,0-2,0-3,0c-0.2,0-0.9-0.1-1,0c-0.1,0.1,0,1,0,1.1c0,0.8,0,1.7,0,2.5c0,2,0,4,0,6c0,0.7,0,1.4,0,2.1c0,0.1-0.1,0.5,0,0.6
	c0.2,0.2,1.2,0,1.4,0c6.7,0,13.4,0,20.1,0c6.6,0,13.2,0,19.8,0c0.2,0,1.1-0.1,1.2,0c0.2,0.2,0,1.4,0,1.6c0,3.3,0,6.7,0,10
	c0,3.9,0,7.9,0,11.8c0,1.3,0,2.5,0,3.8c0,0.2,0.1,1,0,1.2c-0.2,0.2-1.3,0-1.5,0c-1.2,0-2.3,0-3.5,0c-3.6,0-7.1,0-10.7,0
	c-7.5,0-15.1,0-22.6,0c-1,0-2,0-3,0c-0.2,0-0.9-0.1-1.1,0c-0.1,0.1,0,1,0,1.1c0,0.8,0,1.6,0,2.4c0,2,0,4,0,6c0,0.7,0,1.4,0,2.2
	c0,0.1-0.1,0.5,0,0.6c0.1,0.1,1.2,0,1.4,0c2.7,0,5.4,0,8.1,0c8,0,15.9,0,23.9,0c2.6,0,5.3,0,7.9,0c0.2,0,1.1-0.1,1.2,0
	c0.2,0.2,0,1.4,0,1.6c0,7.3,0,14.5,0,21.8c0,1.3,0,2.6,0,3.8c0,0.2,0.1,0.9-0.1,1.1c-0.2,0.2-1.3,0-1.6,0c-1.2,0-2.3,0-3.5,0
	c-7.7,0-15.4,0-23.1,0c-3.4,0-6.8,0-10.2,0c-1,0-2,0-3,0c-0.2,0-0.9-0.1-1,0c-0.1,0.1,0,1,0,1.2c0,0.8,0,1.7,0,2.5c0,2,0,4,0,6
	c0,0.4-0.3,2.3,0,2.6c0.2,0.2,1.2,0,1.4,0c6.7,0,13.5,0,20.2,0c6.6,0,13.1,0,19.7,0c0.2,0,1-0.1,1.2,0c0.2,0.2,0,1.4,0,1.7
	c0,3.4,0,6.7,0,10.1c0,3.9,0,7.9,0,11.8c0,1.3,0,2.5,0,3.8c0,0.2,0.1,1,0,1.1c-0.3,0.2-1.8,0-2.1,0c-1.7,0-3.5,0-5.2,0
	c-5.9,0-11.7,0-17.6,0c-7.8,0-15.7,0-23.5,0c-8.3,0-16.6,0-24.9,0c-7.3,0-14.6,0-22,0c-4.9,0-9.7,0-14.6,0c-1,0-2.2,0.2-3.2,0
	c-0.2,0-0.2,0-0.3-0.1c-0.2-0.3,0-1.8,0-2.2c0-7.4,0-14.7,0-22.1c0-1.1,0-2.3,0-3.4c0-0.4-0.1-0.5,0.2-0.7c0.5-0.2,1.5,0,2,0
	c1.3,0,2.5,0,3.8,0c7.8,0,15.6,0,23.4,0c3.3,0,6.6,0,9.8,0c0.9,0,1.8,0,2.7,0c0.4,0,0.6,0.1,0.7-0.2c0.2-0.4,0-1.3,0-1.7
	c0-0.9,0-1.8,0-2.7c0-1.9,0-3.9,0-5.8c0-0.4,0.2-1.7-0.1-1.9c-0.3-0.2-1.4,0-1.7,0c-6.9,0-13.8,0-20.7,0c-6.4,0-12.8,0-19.2,0
	c-0.2,0-0.8,0.1-0.9,0c-0.2-0.2,0-1.7,0-2c0-3.5,0-6.9,0-10.4c0-3.9,0-7.7,0-11.6c0-1.2,0-2.3,0-3.5c0-0.4-0.1-0.6,0.1-0.7
	c0.4-0.2,1.5,0,1.9,0c1.2,0,2.5,0,3.7,0c3.7,0,7.3,0,11,0c7.4,0,14.9,0,22.3,0c0.6,0,3.3,0.3,3.6-0.1c0.2-0.3,0-1.2,0-1.5
	c0-0.9,0-1.8,0-2.7c0-2,0-3.9,0-5.9c0-0.4,0.2-1.8-0.1-2c-0.3-0.2-1.4,0-1.7,0c-2.8,0-5.7,0-8.5,0c-7.9,0-15.9,0-23.8,0
	c-2.5,0-5,0-7.6,0c-0.1,0-0.9,0.1-1,0c-0.2-0.2,0-1.6,0-1.9c0-7.3,0-14.6,0-22c0-1.2,0-2.4,0-3.6c0-0.3-0.1-0.8,0.1-0.9
	c0.3-0.2,1.4,0,1.7,0c1.2,0,2.4,0,3.7,0c7.7,0,15.4,0,23.2,0c3.4,0,6.7,0,10.1,0c1,0,2,0,2.9,0c0.2,0,0.8,0.1,0.9-0.1
	c0.1-0.2,0-1.1,0-1.3c0-0.8,0-1.7,0-2.5c0-2,0-4,0-6c0-0.4,0.2-2.2,0-2.4c-0.2-0.2-1.3,0-1.5,0c-6.8,0-13.5,0-20.3,0
	c-6.5,0-13.1,0-19.6,0c-0.2,0-1,0.1-1.2,0c-0.2-0.2,0-1.4,0-1.7c0-3.4,0-6.7,0-10.1c0-3.9,0-7.8,0-11.8c0-1.3,0-2.5,0-3.8
	c0-0.2-0.1-0.9,0.1-1c0.3-0.2,1.4,0,1.7,0c1.2,0,2.4,0,3.5,0c3.6,0,7.2,0,10.8,0c7.5,0,15,0,22.6,0c1,0,2,0,3,0c0.2,0,0.9,0.1,1,0
	c0.1-0.1,0-1,0-1.2c0-0.8,0-1.7,0-2.5c0-2,0-4,0-6c0-0.7,0-1.4,0-2.1c0-0.1,0.1-0.6,0-0.6c-0.2-0.1-1.2,0-1.4,0c-2.7,0-5.4,0-8.1,0
	c-8,0-15.9,0-23.9,0c-2.7,0-5.3,0-8,0c-0.2,0-1.2,0.1-1.3,0c-0.2-0.1,0-1.3,0-1.5c0-7.2,0-14.5,0-21.7c0-1.3,0-2.6,0-3.9
	c0-0.2-0.1-1,0-1.2c0.2-0.2,1.3,0,1.5,0c1.1,0,2.3,0,3.4,0c7.7,0,15.4,0,23,0c3.4,0,6.9,0,10.3,0c1.1,0,2.1,0,3.2,0
	c0.2,0,1,0.1,1.1,0c0.1-0.1,0-0.8,0-1c0-0.8,0-1.6,0-2.4c0-2,0-3.9,0-5.9c0-0.8,0-1.5,0-2.3c0-0.1,0.1-0.7,0-0.8
	c-0.1-0.1-1.1,0-1.3,0c-6.6,0-13.2,0-19.8,0c-6.7,0-13.4,0-20.1,0c-0.2,0-1.2,0.2-1.4,0c-0.1-0.1,0-1.1,0-1.3c0-3.2,0-6.5,0-9.7
	c0-4,0-7.9,0-11.9c0-1.4,0-2.7,0-4.1c0-0.2-0.1-1.2,0-1.4c0.1-0.1,1.2,0,1.4,0c1.1,0,2.2,0,3.3,0c3.5,0,7,0,10.5,0
	c7.6,0,15.2,0,22.9,0c1.1,0,2.2,0,3.3,0c0.2,0,1.2,0.1,1.3,0c0.1-0.1,0-0.6,0-0.8c0-0.7,0-1.5,0-2.2c0-2,0-4,0-6c0-0.8,0-1.6,0-2.4
	c0-0.1,0.1-0.9,0-1c-0.1-0.1-0.9,0-1.1,0c-2.6,0-5.2,0-7.7,0c-8,0-15.9,0-23.9,0c-2.8,0-5.5,0-8.3,0c-0.2,0-1.3,0.2-1.5,0
	c-0.1-0.1,0-0.9,0-1.2c0-7.2,0-14.3,0-21.5c0-1.4,0-2.8,0-4.2c0-0.2-0.2-1.3,0-1.5c0.1-0.1,1.1,0,1.3,0c1.1,0,2.2,0,3.3,0
	c7.6,0,15.2,0,22.9,0c3.5,0,7,0,10.5,0c1.1,0,2.2,0,3.3,0c0.2,0,1.2,0.1,1.4,0c0.1-0.1,0-0.5,0-0.6c0-0.7,0-1.4,0-2.1c0-2,0-4,0-6
	c0-0.8,0-1.6,0-2.4c0-0.2,0.1-1.1,0-1.2c-0.1-0.1-0.8,0-1,0c-6.4,0-12.9,0-19.3,0c-6.9,0-13.7,0-20.6,0c-0.3,0-1.4,0.2-1.7,0
	c-0.2-0.1-0.1-0.7-0.1-1c0-3.1,0-6.2,0-9.3c0-4,0-8,0-12c0-1.4,0-2.8,0-4.2c0-0.3-0.2-1.5,0-1.7c0.1-0.1,1,0,1.1,0c1,0,2.1,0,3.1,0
	c3.4,0,6.9,0,10.3,0c7.7,0,15.4,0,23.1,0c1.1,0,2.3,0,3.4,0c0.3,0,1.3,0.2,1.5,0c0.3-0.2,0-2,0-2.3c0-2,0-4,0-5.9c0-0.9,0-1.7,0-2.6
	c0-0.2,0.1-1.1,0-1.3c-0.1-0.2-0.7-0.1-0.9-0.1c-2.5,0-4.9,0-7.4,0c-7.9,0-15.9,0-23.8,0c-2.9,0-5.7,0-8.6,0c-0.3,0-1.5,0.2-1.8,0
	c-0.2-0.1-0.1-0.6-0.1-0.9c0-7.1,0-14.2,0-21.3c0-1.5,0-2.9,0-4.4c0-0.3-0.2-1.6,0-1.8c0.1-0.1,0.9,0,1.1,0c1,0,2,0,3.1,0
	c7.5,0,15.1,0,22.6,0c3.6,0,7.1,0,10.7,0c1.2,0,2.3,0,3.5,0c0.3,0,1.4,0.2,1.6,0c0.3-0.2,0.1-1.8,0.1-2.2c0-2,0-3.9,0-5.9
	c0-0.9,0-1.7,0-2.6c0-0.3,0.2-1.2,0-1.5c-0.1-0.2-0.5-0.1-0.8-0.1c-6.3,0-12.7,0-19,0c-6.9,0-13.9,0-20.8,0c-0.4,0-1.5,0.2-1.8,0
	c-0.2-0.1-0.1-0.5-0.1-0.8c0-3,0-6,0-8.9c0-4,0-8.1,0-12.1c0-1.5,0-3,0-4.5c0-0.3-0.2-1.7,0-1.9c0.1-0.1,0.7,0,0.8,0
	c0.8,0,1.7,0,2.5,0c3,0,5.9,0,8.9,0c8.1,0,16.2,0,24.2,0c3.4,0,6.8,0,10.1,0c1.2,0,2.3,0,3.5,0c0.5,0,1.3,0.2,1.9,0
	c0.3-0.1,0.2,0.1,0.3-0.2c0.1-0.3,0-1,0-1.2c0-2,0-3.9,0-5.9c0-6.9,0-13.9,0-20.8c0-8.2,0-16.5,0-24.7c0-6.3,0-12.6,0-18.9
	c0-0.9,0-1.8,0-2.6c0-0.4,0.1-1.1,0-1.5c-0.1-0.5-0.3-0.3-1-0.3c-1,0-1.9,0-2.9,0c-0.5,0-0.4,0.1-0.6-0.2c-0.1-0.4,0-1.2,0-1.6
	c0-0.8,0-1.7,0-2.5c0-2,0-4,0-6.1c0-0.8,0-1.6,0-2.4c0-0.2-0.1-1,0-1.2c0.2-0.3,1.5-0.1,1.9-0.1c3.8,0,7.6,0,11.5,0
	c1.4,0,2.8,0,4.2,0c0.8,0,0.5,0.3,0.5,1.1c0,3.7,0,7.3,0,11c0,0.6,0.1,1.2,0,1.8c-0.1,0.4,0.1,0.2-0.3,0.3c-0.8,0.2-1.9,0-2.7,0
	c-0.2,0-1.3-0.1-1.5,0c-0.1,0.1,0,0.7,0,0.8c0,0.7,0,1.3,0,2c0,2.4,0,4.7,0,7.1c0,7.4,0,14.7,0,22.1c0,8.2,0,16.3,0,24.5
	c0,5.7,0,11.3,0,17c0,0.6,0,1.3,0,1.9c0,0.1-0.1,0.6,0,0.7c0.1,0.1,0.8,0,0.9,0c0.9,0,1.7,0,2.6,0c7,0,14,0,21,0
	c7.4,0,14.9,0,22.3,0c1.1,0,2.2,0,3.3,0c0.5,0,1.4-0.2,1.8,0c0.3,0.1,0.2,0,0.2,0.5c0,1.1,0,2.1,0,3.2c0,7.4,0,14.8,0,22.1
	c0,0.5,0,1,0,1.5c0,0.2,0.1,0.7,0,0.8c-0.1,0.2-0.4,0.1-0.7,0.1c-2.4,0-4.7,0-7.1,0c-7.9,0-15.8,0-23.7,0
	C98.6,127.6,94.9,127.6,91.3,127.6z"/>
</svg>
