<?xml version="1.0" encoding="utf-8"?>
<!-- Generator: Adobe Illustrator 19.0.0, SVG Export Plug-In  -->
<svg version="1.1"
	 xmlns="http://www.w3.org/2000/svg" xmlns:xlink="http://www.w3.org/1999/xlink" xmlns:a="http://ns.adobe.com/AdobeSVGViewerExtensions/3.0/"
	 x="0px" y="0px" width="95.6px" height="218.8px" viewBox="0 0 95.6 218.8" enable-background="new 0 0 95.6 218.8"
	 xml:space="preserve">
<defs>
</defs>
<g id="XMLID_16_">
	<path id="XMLID_18_" fill="none" stroke="#58595B" stroke-width="2.8346" stroke-miterlimit="10" d="M51.9,137.2
		c-0.7,5.8,2.4,12.2,8.3,13.8c5,1.4,13.5-1.5,13.4-7.8c-0.1-6.3-8.9-7.9-11-13.1c-2.6-6.2,2.8-9.7,7.6-4.9c3.7,3.7,3.3,9.5,9.7,10.2
		c6.6,0.7,11-6.4,6.5-11.8c-2.6-3.1-7.6-3-11.3-4c-3.6-1-12.3-3.6-5.8-9c4.2-3.5,9.5,1.8,12.7,4.2c4.4,3.3,10.6,1.9,12.1-4.1
		c1.3-5.1-4-11.1-9.3-11c-4.9,0.1-7.5,5.4-12.8,3.4c-6.4-2.5-3.9-10.8,2.4-10.9c5.8-0.1,12.6,5.7,16.8-1.3c3-4.9,0.1-12-5.7-13
		c-6.4-1.1-8.6,5-12.9,7.9c-3.8,2.5-9.4-1.5-6.6-5.8c3.4-5.1,13-3.8,15.1-9.9c2.4-6.5-5.1-11-10.7-10c-7.7,1.4-4.6,10.5-11.9,10.7"
		/>
	<path id="XMLID_17_" fill="none" stroke="#58595B" stroke-width="2.8346" stroke-miterlimit="10" d="M60.1,70.6
		c-3.6-1-6.8-2.8-4.8-7.1c2.1-4.5,7.5-2.9,10.4-5.6c5.9-5.4-7.4-16-12.6-8"/>
</g>
<path id="XMLID_15_" fill="none" stroke="#58595B" stroke-width="2.8346" stroke-miterlimit="10" d="M40.2,158.3
	c1,13.3-18.5,27.3-30.1,9.2c-4.7-7.3-3.4-16.3,2.4-22.6c3.7-3.9,7.1-4.7,12.2-5.8c8.7-1.9,17.9-3.8,24.8-9.7
	c6.7-5.8,12.5-14.6,12.7-23.7c0.5-15.3-10-31-19.2-42.4c-3.8-4.7-8.7-8.9-13.2-13.1c-3.3-3.1-7.7-5.8-11.2-13.4
	C11.8,21.8,21.1,1,41.5,1.4c6.8,0.1,15.3,5.7,18.6,14c7,17.5-18,39.8-8,52.4c5.8,7.3,10.7,13.5,14.1,22.3c3.8,9.7,3,17.7-1,27.3
	c-3.7,8.9-9.8,17.1-17.2,23.3c-6.3,5.3-14,9.7-19,16.4c-3.8,5.2-9.2,12.4-7.4,18.7c1.6,5.6,23.5,23,23.1,33.9
	c-0.2,5.2-3.5,7.7-9.6,7.7c-2,0-5.6-3.8-4.7-9.4c1.5-9.3,18.3-21,25.1-30.9c4.1-6.1-7.6-27.8-13.1-31.9C27,133.7,15,131.2,5.2,113.5
	C-4,96.9,4.6,77.3,19.8,66.7c13.3-9.3,33.9-19.9,35-40.2c0.4-8.1-5.4-15.9-14.9-17.2c-22-2.9-21.5,32-5.2,45.6
	c3.9,3.2-19.4,15.5-23.3,31.8C6.6,107.1,25.3,114,25.3,114"/>
</svg>
