<?xml version="1.0" encoding="utf-8"?>
<!-- Generator: Adobe Illustrator 22.0.1, SVG Export Plug-In . SVG Version: 6.00 Build 0)  -->
<svg version="1.1" id="Layer_1" xmlns="http://www.w3.org/2000/svg" xmlns:xlink="http://www.w3.org/1999/xlink" x="0px" y="0px"
	 viewBox="0 0 229.3 604" style="enable-background:new 0 0 229.3 604;" xml:space="preserve">
<style type="text/css">
	.st0{fill:#FFFFFF;stroke:#000000;stroke-miterlimit:10;}
	.st1{fill:none;stroke:#000000;stroke-miterlimit:10;}
</style>
<rect x="44.3" y="109.9" class="st0" width="141.7" height="425.2"/>
<polygon class="st0" points="171.8,153.7 171.8,125.4 129.3,125.4 101,125.4 58.4,125.4 58.4,153.7 101,153.7 101,166 58.4,166 
	58.4,194.4 101,194.4 101,206.7 58.4,206.7 58.4,235 101,235 101,247.4 58.4,247.4 58.4,275.7 101,275.7 101,288 58.4,288 
	58.4,316.4 101,316.4 101,328.7 58.4,328.7 58.4,357 101,357 101,369.4 58.4,369.4 58.4,397.7 101,397.7 101,410 58.4,410 
	58.4,438.4 101,438.4 101,450.7 58.4,450.7 58.4,479 101,479 101,491.3 58.4,491.3 58.4,519.7 101,519.7 101,519.7 129.3,519.7 
	129.3,519.7 171.8,519.7 171.8,491.3 129.3,491.3 129.3,479 171.8,479 171.8,450.7 129.3,450.7 129.3,438.4 171.8,438.4 171.8,410 
	129.3,410 129.3,397.7 171.8,397.7 171.8,369.4 129.3,369.4 129.3,357 171.8,357 171.8,328.7 129.3,328.7 129.3,316.4 171.8,316.4 
	171.8,288 129.3,288 129.3,275.7 171.8,275.7 171.8,247.4 129.3,247.4 129.3,235 171.8,235 171.8,206.7 129.3,206.7 129.3,194.4 
	171.8,194.4 171.8,166 129.3,166 129.3,153.7 "/>
<line class="st1" x1="115.1" y1="36.3" x2="115.1" y2="117.7"/>
</svg>
