<?xml version="1.0" encoding="utf-8"?>
<!-- Generator: Adobe Illustrator 22.0.1, SVG Export Plug-In . SVG Version: 6.00 Build 0)  -->
<svg version="1.1" id="Layer_1" xmlns="http://www.w3.org/2000/svg" xmlns:xlink="http://www.w3.org/1999/xlink" x="0px" y="0px"
	 viewBox="0 0 546.2 801" style="enable-background:new 0 0 546.2 801;" xml:space="preserve">
<style type="text/css">
	.st0{fill:#666666;}
	.st1{fill:#CCCCCC;}
	.st2{fill:none;stroke:#131DA3;stroke-width:5.6693;stroke-miterlimit:10;}
</style>
<path class="st0" d="M500.3,206.7H75.1c-15.6,0-28.3,12.8-28.3,28.3l0,0c0,15.6,12.8,28.3,28.3,28.3h425.2
	c15.6,0,28.3-12.8,28.3-28.3l0,0C528.7,219.4,515.9,206.7,500.3,206.7z M116,242.1H73.5c-3.9,0-7.1-3.2-7.1-7.1s3.2-7.1,7.1-7.1H116
	c3.9,0,7.1,3.2,7.1,7.1S119.9,242.1,116,242.1z M502,242.1h-42.5c-3.9,0-7.1-3.2-7.1-7.1s3.2-7.1,7.1-7.1H502c3.9,0,7.1,3.2,7.1,7.1
	S505.9,242.1,502,242.1z"/>
<path class="st0" d="M500.3,582.7H75.1c-15.6,0-28.3,12.8-28.3,28.3l0,0c0,15.6,12.8,28.3,28.3,28.3h425.2
	c15.6,0,28.3-12.8,28.3-28.3l0,0C528.7,595.4,515.9,582.7,500.3,582.7z M116,618.1H73.5c-3.9,0-7.1-3.2-7.1-7.1s3.2-7.1,7.1-7.1H116
	c3.9,0,7.1,3.2,7.1,7.1S119.9,618.1,116,618.1z M502,618.1h-42.5c-3.9,0-7.1-3.2-7.1-7.1s3.2-7.1,7.1-7.1H502c3.9,0,7.1,3.2,7.1,7.1
	S505.9,618.1,502,618.1z"/>
<path id="BLADDER" class="st1" d="M382.2,340.4v-62c0-53.7-42.5-97.6-94.5-97.6l0,0c-52,0-94.5,43.9-94.5,97.6v62
	C165,357.3,146,388.9,146,424.8l0,0c0,35.9,19.1,67.4,47.2,84.4v62c0,53.7,42.5,97.6,94.5,97.6l0,0c52,0,94.5-43.9,94.5-97.6v-62
	c28.2-16.9,47.2-48.5,47.2-84.4l0,0C429.5,388.9,410.4,357.4,382.2,340.4z M195.7,446.1c0,3.9-3.2,7.1-7.1,7.1l0,0
	c-3.9,0-7.1-3.2-7.1-7.1v-42.5c0-3.9,3.2-7.1,7.1-7.1l0,0c3.9,0,7.1,3.2,7.1,7.1V446.1z M309,613.9h-42.5c-3.9,0-7.1-3.2-7.1-7.1
	s3.2-7.1,7.1-7.1H309c3.9,0,7.1,3.2,7.1,7.1S312.9,613.9,309,613.9z M340.2,583.1H235.3c-2.3,0-4.3-1.9-4.3-4.3s1.9-4.3,4.3-4.3
	h104.9c2.3,0,4.3,1.9,4.3,4.3S342.5,583.1,340.2,583.1z M259.4,550.8c0-3.9,3.2-7.1,7.1-7.1H309c3.9,0,7.1,3.2,7.1,7.1
	s-3.2,7.1-7.1,7.1h-42.5C262.6,557.9,259.4,554.7,259.4,550.8z M340.2,527.1H235.3c-2.3,0-4.3-1.9-4.3-4.3s1.9-4.3,4.3-4.3h104.9
	c2.3,0,4.3,1.9,4.3,4.3S342.5,527.1,340.2,527.1z M259.4,494.8c0-3.9,3.2-7.1,7.1-7.1H309c3.9,0,7.1,3.2,7.1,7.1s-3.2,7.1-7.1,7.1
	h-42.5C262.6,501.9,259.4,498.7,259.4,494.8z M340.2,471.1H235.3c-2.3,0-4.3-1.9-4.3-4.3s1.9-4.3,4.3-4.3h104.9
	c2.3,0,4.3,1.9,4.3,4.3S342.5,471.1,340.2,471.1z M259.4,438.8c0-3.9,3.2-7.1,7.1-7.1H309c3.9,0,7.1,3.2,7.1,7.1s-3.2,7.1-7.1,7.1
	h-42.5C262.6,445.9,259.4,442.7,259.4,438.8z M340.2,415.1H235.3c-2.3,0-4.3-1.9-4.3-4.3s1.9-4.3,4.3-4.3h104.9
	c2.3,0,4.3,1.9,4.3,4.3S342.5,415.1,340.2,415.1z M259.4,382.8c0-3.9,3.2-7.1,7.1-7.1H309c3.9,0,7.1,3.2,7.1,7.1s-3.2,7.1-7.1,7.1
	h-42.5C262.6,389.9,259.4,386.7,259.4,382.8z M340.2,359.1H235.3c-2.3,0-4.3-1.9-4.3-4.3s1.9-4.3,4.3-4.3h104.9
	c2.3,0,4.3,1.9,4.3,4.3S342.5,359.1,340.2,359.1z M259.4,326.8c0-3.9,3.2-7.1,7.1-7.1H309c3.9,0,7.1,3.2,7.1,7.1s-3.2,7.1-7.1,7.1
	h-42.5C262.6,333.9,259.4,330.7,259.4,326.8z M340.2,303.1H235.3c-2.3,0-4.3-1.9-4.3-4.3s1.9-4.3,4.3-4.3h104.9
	c2.3,0,4.3,1.9,4.3,4.3S342.5,303.1,340.2,303.1z M259.4,270.8c0-3.9,3.2-7.1,7.1-7.1H309c3.9,0,7.1,3.2,7.1,7.1s-3.2,7.1-7.1,7.1
	h-42.5C262.6,277.9,259.4,274.7,259.4,270.8z M340.2,247.1H235.3c-2.3,0-4.3-1.9-4.3-4.3s1.9-4.3,4.3-4.3h104.9
	c2.3,0,4.3,1.9,4.3,4.3S342.5,247.1,340.2,247.1z M394.7,446.1c0,3.9-3.2,7.1-7.1,7.1l0,0c-3.9,0-7.1-3.2-7.1-7.1v-42.5
	c0-3.9,3.2-7.1,7.1-7.1l0,0c3.9,0,7.1,3.2,7.1,7.1V446.1z"/>
<line id="AIRTUBE4" class="st2" x1="287.8" y1="212.7" x2="287.8" y2="113"/>
</svg>
