<?xml version="1.0" encoding="utf-8"?>
<!-- Generator: Adobe Illustrator 22.0.1, SVG Export Plug-In . SVG Version: 6.00 Build 0)  -->
<svg version="1.1" id="Layer_1" xmlns="http://www.w3.org/2000/svg" xmlns:xlink="http://www.w3.org/1999/xlink" x="0px" y="0px"
	 viewBox="0 0 142.1 173.6" style="enable-background:new 0 0 142.1 173.6;" xml:space="preserve">
<style type="text/css">
	.st0{fill:none;stroke:#000000;stroke-miterlimit:10;}
</style>
<g>
	<path id="BLADDER" d="M79.3,42.7l14.8,30c1.3,2.7,3.9,4.6,6.9,5l33.1,4.8c7.6,1.1,10.6,10.4,5.1,15.7l-24,23.3
		c-2.2,2.1-3.2,5.2-2.7,8.2l5.7,33c1.3,7.5-6.6,13.3-13.4,9.7l-29.6-15.6c-2.7-1.4-5.9-1.4-8.6,0l-29.6,15.6
		c-6.8,3.6-14.7-2.2-13.4-9.7l5.7-33c0.5-3-0.5-6-2.7-8.2l-24-23.3C-2.7,93,0.3,83.7,7.9,82.6L41,77.7c3-0.4,5.6-2.3,6.9-5l14.8-30
		C66.1,35.8,75.9,35.8,79.3,42.7z"/>
	<line id="AIRTUBE4" class="st0" x1="71" y1="-3.5" x2="71" y2="84.1"/>
</g>
</svg>
