<?xml version="1.0" encoding="utf-8"?>
<!-- Generator: Adobe Illustrator 22.1.0, SVG Export Plug-In . SVG Version: 6.00 Build 0)  -->
<svg version="1.1" id="Layer_1" xmlns="http://www.w3.org/2000/svg" xmlns:xlink="http://www.w3.org/1999/xlink" x="0px" y="0px"
	 viewBox="0 0 216 216" style="enable-background:new 0 0 216 216;" xml:space="preserve">
<style type="text/css">
	.st0{fill:none;stroke:#000000;stroke-width:2.8346;stroke-miterlimit:10;}
	.st1{fill:#4D4D4D;}
</style>
<line id="AIRTUBE4_2_" class="st0" x1="106.3" y1="72.5" x2="106.3" y2="1"/>
<line id="AIRTUBE4_4_" class="st0" x1="60.7" y1="72.5" x2="60.7" y2="1"/>
<line id="AIRTUBE4_3_" class="st0" x1="152.3" y1="72.5" x2="152.3" y2="1"/>
<path id="BLADDER" class="st1" d="M156.9,98.6V84.4c5.6-1.9,9.6-7.2,9.6-13.4c0-7.8-6.4-14.2-14.2-14.2c-7.8,0-14.2,6.4-14.2,14.2
	c0,6.2,4,11.5,9.5,13.4v14.2h-36.8V84.4c5.6-1.9,9.6-7.2,9.6-13.4c0-7.8-6.4-14.2-14.2-14.2c-7.8,0-14.2,6.4-14.2,14.2
	c0,6.2,4,11.5,9.5,13.4v14.2H65.3V84.4c5.6-1.9,9.6-7.2,9.6-13.4c0-7.8-6.4-14.2-14.2-14.2c-7.8,0-14.2,6.4-14.2,14.2
	c0,6.2,4,11.5,9.5,13.4v14.2H21.5v99.2h170.1V98.6H156.9z"/>
</svg>
