<?xml version="1.0" encoding="utf-8"?>
<!-- Generator: Adobe Illustrator 22.1.0, SVG Export Plug-In . SVG Version: 6.00 Build 0)  -->
<svg version="1.1" id="Layer_1" xmlns="http://www.w3.org/2000/svg" xmlns:xlink="http://www.w3.org/1999/xlink" x="0px" y="0px"
	 viewBox="0 0 374.5 184" style="enable-background:new 0 0 374.5 184;" xml:space="preserve">
<style type="text/css">
	.st0{fill:#C15675;}
	.st1{opacity:0.37;}
</style>
<path id="BLADDER" class="st0" d="M357.5,62.5c0.1-2.2-0.8-4.3-2.5-5.6c-1.7-1.4-3.9-1.9-6-1.3c-11.2,3-31.8,7.9-47.1,8.5
	c-0.9,0.4-1.8,0.7-2.7,1.1l-2.3,0.5l-18.4-3.4c0.2-0.1,0.4-0.2,0.6-0.3c-22.6-4-54-14-54-32c0-10.8-7.1-11.7-7.1-11.7
	c-14.3-2.6-27.7,16.4-33.6,21.5c-3,2.6-6.9,5.2-12.7,5.6c-16.6,1-117.8,23.4-117.8,55c0,2.6,0.7,5,1.9,7.2c-3.6-1.7-6.8-4.2-8.8-7.7
	c-0.1-0.1-0.4-0.8-0.6-2.7c2.8-1.1,4.9-3.9,4.9-7.2c0-2.2-1-4.2-2.5-5.6c2.3-2.6,4.9-4.8,6.9-6.3c2.1-0.1,3.8-1.9,3.8-4.1
	c0-0.3,0-0.6-0.1-0.8c5.2-4.8,8.1-10.6,8.5-16.8c0.5-7.6-2.9-15.4-9.6-22.4c-5.3-5.6-13.3-6.7-20.6-6.2c-2.2-0.6-4.4-1-6.8-1
	c-13.1,0-23.6,10.6-23.6,23.6c0,13.1,10.6,23.6,23.6,23.6s23.6-10.6,23.6-23.6c0-8.2-4.2-15.5-10.6-19.7c4.7,0.4,9.1,1.9,12.3,5.2
	c6.2,6.5,9.2,13.5,8.8,20.3c-0.3,5.4-2.8,10.3-7.2,14.6C57,70.3,56.2,70,55.3,70c-2.3,0-4.1,1.8-4.1,4.1c0,0.1,0,0.2,0,0.3
	c-3,2.4-5.9,5-8.2,8c-4,0.2-7.2,3.6-7.2,7.7c0,1.6,0.5,3,1.3,4.3c-0.1,4.4,0.5,7.7,1.8,10.1c6.7,11.9,21,15.2,31.9,15.9
	c33.6,16.7,108.2,18.1,138.3,4.8c1.6-0.7,3.4-1.3,5.1-1.7c1.5-0.9,2.9-1.7,4.2-2.5l27,5.6c12.4,3.5,23.9,8.1,30.8,7.9
	c0,0,6.6-16.5,0-26.6c-0.6-0.2-1.1-0.4-1.6-0.6c-2.4-0.8-6.6-1.9-11-2.9L245.4,99c1.6-1.9,3.1-3.8,4.5-5.7l23.5,5.8l0.1-0.3
	c1.5,0.4,2.8,0.8,3.8,1.1c1.2,0.4,3.2,1.2,5.5,2.1c20.9-0.2,34.3,10,56.1,25.6c2.1,1.5,4.8,1.7,7.1,0.5c2.3-1.2,3.7-3.5,3.7-6
	c0-17.1-8-21.7-8-27.2C341.7,82.9,356.4,82.5,357.5,62.5z M93.3,104.5c-4.3,0-7.8-3.5-7.8-7.9c0-4.4,3.5-7.9,7.8-7.9
	c4.3,0,7.8,3.5,7.8,7.9C101.1,100.9,97.6,104.5,93.3,104.5z M278.8,71c-2,1.3-3.8,2.8-5.6,4.6l-9-1.9c1.4-1.6,2.8-3.1,4.2-4.5
	L278.8,71z M239.1,116.6l-10.2-2.1c3.8-2.7,7.1-5.6,10.2-8.6l8.5,2.6C245,111.3,242.2,114,239.1,116.6z M255.5,85.4
	c1-1.5,2-2.9,3.1-4.3L267,83c-1.2,1.6-2.4,3.2-3.6,4.9l-8.3-2C255.3,85.7,255.4,85.6,255.5,85.4z"/>
<line id="AIRTUBE4" class="st1" x1="184.1" y1="117.9" x2="184.1" y2="181.3"/>
</svg>
