<?xml version="1.0" encoding="utf-8"?>
<!-- Generator: Adobe Illustrator 22.1.0, SVG Export Plug-In . SVG Version: 6.00 Build 0)  -->
<svg version="1.1" id="Layer_1" xmlns="http://www.w3.org/2000/svg" xmlns:xlink="http://www.w3.org/1999/xlink" x="0px" y="0px"
	 viewBox="0 0 299.5 351.5" style="enable-background:new 0 0 299.5 351.5;" xml:space="preserve">
<style type="text/css">
	.st0{fill:#DDDDDD;}
	.st1{fill:none;stroke:#00A79D;stroke-width:5.6693;stroke-miterlimit:10;}
</style>
<g>
	<path id="BLADDER_1_" class="st0" d="M299.5,7.8v41c0,4.3-3.5,7.8-7.8,7.8h-41c-4.3,0-7.8-3.5-7.8-7.8V18.8V7.8
		c0-4.3,3.5-7.8,7.8-7.8h41C296,0,299.5,3.5,299.5,7.8z"/>
	<path id="BLADDER_3_" class="st0" d="M299.5,81.5v41c0,4.3-3.5,7.8-7.8,7.8h-97.7c-4.3,0-7.8-3.5-7.8-7.8V92.5V81.5
		c0-4.3,3.5-7.8,7.8-7.8h97.7C296,73.7,299.5,77.2,299.5,81.5z"/>
	<path id="BLADDER_8_" class="st0" d="M16,343.7v-41c0-4.3,3.5-7.8,7.8-7.8h267.8c4.3,0,7.8,3.5,7.8,7.8v30.1v10.9
		c0,4.3-3.5,7.8-7.8,7.8H23.8C19.5,351.5,16,348,16,343.7z"/>
	<path id="BLADDER_6_" class="st0" d="M129.4,196.3v-41c0-4.3,3.5-7.8,7.8-7.8h154.4c4.3,0,7.8,3.5,7.8,7.8v30.1v10.9
		c0,4.3-3.5,7.8-7.8,7.8H137.2C132.9,204.1,129.4,200.6,129.4,196.3z"/>
	<path id="BLADDER_5_" class="st0" d="M72.7,270v-41c0-4.3,3.5-7.8,7.8-7.8h211.1c4.3,0,7.8,3.5,7.8,7.8V259V270
		c0,4.3-3.5,7.8-7.8,7.8H80.5C76.2,277.8,72.7,274.3,72.7,270z"/>
	<path id="AIRTUBE4_3_" class="st1" d="M226.8,30.5h32"/>
	<path id="AIRTUBE4_1_" class="st1" d="M170.1,102.1h32"/>
	<path id="AIRTUBE4_2_" class="st1" d="M113.4,175.8h32"/>
	<path id="AIRTUBE4_4_" class="st1" d="M56.7,249.5h32"/>
	<path id="AIRTUBE4_5_" class="st1" d="M0,323.2h32"/>
</g>
</svg>
