<?xml version="1.0" encoding="utf-8"?>
<!-- Generator: Adobe Illustrator 22.1.0, SVG Export Plug-In . SVG Version: 6.00 Build 0)  -->
<svg version="1.1" id="Layer_1" xmlns="http://www.w3.org/2000/svg" xmlns:xlink="http://www.w3.org/1999/xlink" x="0px" y="0px"
	 viewBox="0 0 286.9 215.7" style="enable-background:new 0 0 286.9 215.7;" xml:space="preserve">
<style type="text/css">
	.st0{fill:#DDDDDD;}
	.st1{fill:none;stroke:#00A79D;stroke-width:5.6693;stroke-miterlimit:10;}
</style>
<polygon id="BLADDER_5_" class="st0" points="42.5,106.3 55.7,132.9 85,137.2 63.8,157.9 68.8,187.2 42.5,173.3 16.2,187.2 
	21.3,157.9 0,137.2 29.4,132.9 "/>
<polygon id="BLADDER_4_" class="st0" points="186,183.1 143.5,183.4 100.9,183.7 121.9,146.7 142.9,109.7 164.4,146.4 "/>
<path id="BLADDER_3_" class="st0" d="M108.1,39.1c-3.4-5.7,0.7-13,7.4-13l27.6-0.2l27.6-0.2c6.6,0,10.9,7.1,7.6,12.9l-13.6,24
	l-13.6,24c-3.3,5.8-11.6,5.8-15,0.1l-14-23.8L108.1,39.1z"/>
<path id="BLADDER_2_" class="st0" d="M278.3,200l-67.9,0c-4.7,0-8.6-3.8-8.6-8.6l0-67.9c0-4.7,3.8-8.6,8.6-8.6l49.8,0l18.1,0
	c4.7,0,8.6,3.8,8.6,8.6l0,67.9C286.9,196.2,283.1,200,278.3,200z"/>
<polygon id="BLADDER_1_" class="st0" points="286.9,101 201.9,101 201.9,16 258.8,16 286.9,16 "/>
<path id="BLADDER" class="st0" d="M34.9,85.4l-3.5-7.2c-1.2-2.5-3.6-4.2-6.4-4.6L17,72.4c-7-1-9.7-9.6-4.7-14.5l5.7-5.6
	c2-2,2.9-4.8,2.4-7.5l-1.4-7.9c-1.2-6.9,6.1-12.2,12.3-9l7.1,3.7c2.5,1.3,5.4,1.3,7.9,0l7.1-3.7c6.2-3.3,13.5,2,12.3,9l-1.4,7.9
	c-0.5,2.8,0.4,5.6,2.4,7.5l5.7,5.6c5,4.9,2.3,13.5-4.7,14.5l-7.9,1.2c-2.8,0.4-5.2,2.1-6.4,4.6l-3.5,7.2C47,91.7,38,91.7,34.9,85.4z
	"/>
<path id="AIRTUBE4_2_" class="st1" d="M143.2,199.7v-32"/>
<path id="AIRTUBE4_1_" class="st1" d="M244.4,215.7v-32"/>
<path id="AIRTUBE4_3_" class="st1" d="M244.4,32V0"/>
<path id="AIRTUBE4_4_" class="st1" d="M41.8,48V16"/>
<path id="AIRTUBE4_5_" class="st1" d="M42.5,189.5v-32"/>
<path id="AIRTUBE4_6_" class="st1" d="M143.5,42.9v-32"/>
</svg>
