<?xml version="1.0" encoding="utf-8"?>
<!-- Generator: Adobe Illustrator 22.1.0, SVG Export Plug-In . SVG Version: 6.00 Build 0)  -->
<svg version="1.1" id="Layer_1" xmlns="http://www.w3.org/2000/svg" xmlns:xlink="http://www.w3.org/1999/xlink" x="0px" y="0px"
	 viewBox="0 0 413.5 283.5" style="enable-background:new 0 0 413.5 283.5;" xml:space="preserve">
<style type="text/css">
	.st0{fill:#983A96;}
	.st1{fill:#00AEEF;}
	.st2{fill:none;stroke:#ED1B7A;stroke-miterlimit:10;}
</style>
<g id="BLADDER">
	
		<ellipse transform="matrix(0.9239 -0.3827 0.3827 0.9239 -44.0915 44.6629)" class="st0" cx="90.2" cy="133.2" rx="53.9" ry="53.9"/>
	<path class="st1" d="M90.2,90.6c23.5,0,42.5,19,42.5,42.5s-19,42.5-42.5,42.5c-23.5,0-42.5-19-42.5-42.5S66.7,90.6,90.2,90.6
		 M90.2,68C54.3,68,25,97.2,25,133.2s29.2,65.2,65.2,65.2s65.2-29.2,65.2-65.2S126.2,68,90.2,68L90.2,68z"/>
</g>
<line id="AIRTUBE4_3_" class="st2" x1="69.5" y1="133.2" x2="31.6" y2="133.2"/>
<g id="BLADDER_1_">
	<ellipse transform="matrix(0.1602 -0.9871 0.9871 0.1602 99.1476 278.4362)" class="st0" cx="213.2" cy="81" rx="51.7" ry="51.7"/>
	<path class="st1" d="M213.2,38.4c23.5,0,42.5,19,42.5,42.5c0,23.5-19,42.5-42.5,42.5c-23.5,0-42.5-19-42.5-42.5
		C170.7,57.5,189.7,38.4,213.2,38.4 M213.2,20c-33.6,0-60.9,27.3-60.9,60.9s27.3,60.9,60.9,60.9c33.6,0,60.9-27.3,60.9-60.9
		S246.8,20,213.2,20L213.2,20z"/>
</g>
<line id="AIRTUBE4_2_" class="st2" x1="213.2" y1="60.3" x2="213.2" y2="22.3"/>
<g id="BLADDER_7_">
	<path class="st0" d="M207,256c-27.4,0-49.6-22.3-49.6-49.6c0-27.4,22.3-49.6,49.6-49.6s49.6,22.3,49.6,49.6
		C256.6,233.7,234.3,256,207,256z"/>
	<path class="st1" d="M207,163.8c23.5,0,42.5,19,42.5,42.5s-19,42.5-42.5,42.5c-23.5,0-42.5-19-42.5-42.5S183.5,163.8,207,163.8
		 M207,149.7c-31.3,0-56.7,25.4-56.7,56.7s25.4,56.7,56.7,56.7s56.7-25.4,56.7-56.7S238.2,149.7,207,149.7L207,149.7z"/>
</g>
<line id="AIRTUBE4_1_" class="st2" x1="207" y1="227.1" x2="207" y2="265"/>
<g id="BLADDER_3_">
	<path class="st0" d="M337.2,143.8c-12.7,0-24.6-4.9-33.6-13.9s-13.9-20.9-13.9-33.6c0-12.7,4.9-24.6,13.9-33.6s20.9-13.9,33.6-13.9
		s24.6,4.9,33.6,13.9c18.5,18.5,18.5,48.6,0,67.1C361.8,138.9,349.9,143.8,337.2,143.8z"/>
	<path class="st1" d="M337.2,53.8c10.9,0,21.8,4.2,30.1,12.5c16.6,16.6,16.6,43.5,0,60.1c-8.3,8.3-19.2,12.5-30.1,12.5
		c-10.9,0-21.8-4.2-30.1-12.5c-16.6-16.6-16.6-43.5,0-60.1C315.4,57.9,326.3,53.8,337.2,53.8 M337.2,43.9c-14,0-27.2,5.5-37.1,15.4
		c-20.4,20.4-20.4,53.7,0,74.2c9.9,9.9,23.1,15.4,37.1,15.4c14,0,27.2-5.5,37.1-15.4c20.4-20.4,20.4-53.7,0-74.2
		C364.4,49.3,351.2,43.9,337.2,43.9L337.2,43.9z"/>
</g>
<line id="AIRTUBE4_4_" class="st2" x1="351.8" y1="81.7" x2="378.6" y2="54.9"/>
<g id="BLADDER_5_">
	<path class="st0" d="M323.7,251.7c-12.1,0-23.5-4.7-32.1-13.3c-8.6-8.6-13.3-20-13.3-32.1s4.7-23.5,13.3-32.1s20-13.3,32.1-13.3
		s23.5,4.7,32.1,13.3c17.7,17.7,17.7,46.5,0,64.1C347.2,247,335.8,251.7,323.7,251.7z"/>
	<path class="st1" d="M323.7,163.8c10.9,0,21.8,4.2,30.1,12.5c16.6,16.6,16.6,43.5,0,60.1c-8.3,8.3-19.2,12.5-30.1,12.5
		c-10.9,0-21.8-4.2-30.1-12.5c-16.6-16.6-16.6-43.5,0-60.1C301.9,168,312.8,163.8,323.7,163.8 M323.7,158.2c-12.9,0-25,5-34.1,14.1
		c-18.8,18.8-18.8,49.4,0,68.1c9.1,9.1,21.2,14.1,34.1,14.1c12.9,0,25-5,34.1-14.1c18.8-18.8,18.8-49.4,0-68.1
		C348.7,163.2,336.6,158.2,323.7,158.2L323.7,158.2z"/>
</g>
<line id="AIRTUBE4" class="st2" x1="338.3" y1="221" x2="365.2" y2="247.8"/>
</svg>
