<?xml version="1.0" encoding="utf-8"?>
<!-- Generator: Adobe Illustrator 22.0.1, SVG Export Plug-In . SVG Version: 6.00 Build 0)  -->
<svg version="1.1" id="Layer_1" xmlns="http://www.w3.org/2000/svg" xmlns:xlink="http://www.w3.org/1999/xlink" x="0px" y="0px"
	 viewBox="0 0 612 792" style="enable-background:new 0 0 612 792;" xml:space="preserve">
<style type="text/css">
	.st0{fill:#FFFFFF;stroke:#000000;stroke-miterlimit:10;}
</style>
<line id="AIRTUBE4" class="st0" x1="219.9" y1="394.2" x2="101.1" y2="394.2"/>
<line id="AIRTUBE4_1_" class="st0" x1="393.1" y1="418.5" x2="274.2" y2="418.5"/>
<polygon id="BLADDER" class="st0" points="250,188.4 250,160 189.9,160 189.9,188.4 211.4,188.4 211.4,196.7 198.3,196.7 
	198.3,225.1 211.4,225.1 211.4,233.4 189.9,233.4 189.9,261.7 211.4,261.7 211.4,270 198.3,270 198.3,298.4 211.4,298.4 
	211.4,306.7 189.9,306.7 189.9,335.1 211.4,335.1 211.4,343.4 198.3,343.4 198.3,371.7 211.4,371.7 211.4,380 189.9,380 
	189.9,408.4 211.4,408.4 211.4,416.7 198.3,416.7 198.3,445.1 211.4,445.1 211.4,453.4 189.9,453.4 189.9,481.7 211.4,481.7 
	211.4,490 198.3,490 198.3,518.4 211.4,518.4 211.4,526.7 189.9,526.7 189.9,555.1 211.4,555.1 211.4,563.4 198.3,563.4 
	198.3,591.7 211.4,591.7 211.4,600 189.9,600 189.9,628.4 250,628.4 250,600 228.4,600 228.4,591.7 241.6,591.7 241.6,563.4 
	228.4,563.4 228.4,555.1 250,555.1 250,526.7 228.4,526.7 228.4,518.4 241.6,518.4 241.6,490 228.4,490 228.4,481.7 250,481.7 
	250,453.4 228.4,453.4 228.4,445.1 241.6,445.1 241.6,416.7 228.4,416.7 228.4,408.4 250,408.4 250,380 228.4,380 228.4,371.7 
	241.6,371.7 241.6,343.4 228.4,343.4 228.4,335.1 250,335.1 250,306.7 228.4,306.7 228.4,298.4 241.6,298.4 241.6,270 228.4,270 
	228.4,261.7 250,261.7 250,233.4 228.4,233.4 228.4,225.1 241.6,225.1 241.6,196.7 228.4,196.7 228.4,188.4 "/>
<rect id="BLADDER_1_" x="363.1" y="404.4" class="st0" width="60" height="224"/>
<line id="AIRTUBE4_2_" class="st0" x1="393.1" y1="369.9" x2="274.2" y2="369.9"/>
<rect id="BLADDER_2_" x="363.1" y="160" class="st0" width="60" height="224"/>
</svg>
