<?xml version="1.0" encoding="utf-8"?>
<!-- Generator: Adobe Illustrator 22.1.0, SVG Export Plug-In . SVG Version: 6.00 Build 0)  -->
<svg version="1.1" id="Layer_1" xmlns="http://www.w3.org/2000/svg" xmlns:xlink="http://www.w3.org/1999/xlink" x="0px" y="0px"
	 viewBox="0 0 216 216" style="enable-background:new 0 0 216 216;" xml:space="preserve">
<style type="text/css">
	.st0{fill:#999999;}
	.st1{fill:none;stroke:#4D4D4D;stroke-width:9.2126;stroke-miterlimit:10;}
</style>
<g id="Bracelate">
	<path class="st0" d="M188.1,118c0-7.5-5.8-13.6-13.2-14.1c-3-7.9-7.2-15.3-12.5-21.7c1-1.9,1.5-4.1,1.5-6.4
		c0-7.8-6.4-14.2-14.2-14.2c-3.2,0-6.1,1.1-8.4,2.8c-7.1-4.1-15-7-23.3-8.5c-1.5-6.3-7.1-11-13.8-11c-6.7,0-12.4,4.7-13.8,11
		c-7.9,1.5-15.4,4.2-22.3,7.9c-2.4-1.9-5.4-3-8.7-3c-7.8,0-14.2,6.4-14.2,14.2c0,2.3,0.5,4.4,1.5,6.3c-5.3,6.3-9.7,13.5-12.7,21.3
		c-7.6,0.2-13.7,6.5-13.7,14.2c0,5.8,3.5,10.8,8.5,13c0,0.1,0,0.3,0,0.4c0,8.5,1.4,16.6,4,24.2c-2.8,2.6-4.6,6.3-4.6,10.4
		c0,7.8,6.4,14.2,14.2,14.2c1.3,0,2.6-0.2,3.9-0.5c5.4,6.4,11.8,12,18.9,16.3c-0.1,0.6-0.1,1.1-0.1,1.7c0,7.8,6.4,14.2,14.2,14.2
		c4.9,0,9.2-2.5,11.7-6.2c4.3,0.8,8.7,1.2,13.3,1.2c4,0,7.9-0.3,11.8-0.9c2.5,3.8,6.9,6.3,11.8,6.3c7.8,0,14.2-6.4,14.2-14.2
		c0-0.5,0-0.9-0.1-1.3c7.3-4.2,13.9-9.7,19.4-16c1.3,0.4,2.6,0.6,4,0.6c7.8,0,14.2-6.4,14.2-14.2c0-4-1.6-7.6-4.3-10.1
		c2.8-7.7,4.3-16,4.4-24.7C184.6,128.8,188.1,123.8,188.1,118z M165.2,151.6c-7.8,0-14.2,6.4-14.2,14.2c0,3.1,1,5.9,2.7,8.3
		c-4.5,5.1-9.8,9.5-15.7,13c-2.6-2.7-6.2-4.4-10.3-4.4c-7.5,0-13.6,5.8-14.1,13.1c-3.1,0.4-6.2,0.7-9.5,0.7c-3.7,0-7.3-0.3-10.8-0.9
		c-0.5-7.4-6.6-13.3-14.2-13.3c-3.9,0-7.5,1.6-10,4.1c-5.8-3.6-11-8.1-15.4-13.3c1.7-2.3,2.7-5.2,2.7-8.4c0-7.8-6.4-14.2-14.2-14.2
		c-0.4,0-0.8,0-1.1,0.1c-2.1-6.3-3.2-13.1-3.2-20.1c6.1-1.6,10.7-7.1,10.7-13.7c0-4.7-2.3-8.9-5.8-11.5c2.6-6.4,6.1-12.3,10.5-17.5
		c1.9,0.9,4,1.4,6.2,1.4c7.8,0,14.2-6.4,14.2-14.2c0-1.2-0.2-2.3-0.4-3.5c5.6-3,11.7-5.2,18.2-6.5c2.3,4.9,7.2,8.2,12.9,8.2
		c5.7,0,10.6-3.4,12.9-8.2c6.8,1.3,13.2,3.7,19.1,7c-0.3,1.2-0.5,2.5-0.5,3.8c0,7.8,6.4,14.2,14.2,14.2c2.2,0,4.2-0.5,6.1-1.4
		c4.2,5.3,7.7,11.2,10.2,17.6c-3.8,2.6-6.2,6.9-6.2,11.8c0,6.6,4.5,12.2,10.7,13.7c-0.2,7-1.4,13.7-3.6,20
		C166.3,151.6,165.7,151.6,165.2,151.6z"/>
	<line id="AIRTUBE4_1_" class="st1" x1="104.1" y1="59.5" x2="104.1" y2="0"/>
</g>
<g id="Parallel">
</g>
</svg>
