<?xml version="1.0" encoding="utf-8"?>
<!-- Generator: Adobe Illustrator 22.0.1, SVG Export Plug-In . SVG Version: 6.00 Build 0)  -->
<svg version="1.1" id="Layer_1" xmlns="http://www.w3.org/2000/svg" xmlns:xlink="http://www.w3.org/1999/xlink" x="0px" y="0px"
	 viewBox="0 0 144.6 226.6" style="enable-background:new 0 0 144.6 226.6;" xml:space="preserve">
<style type="text/css">
	.st0{fill:#010101;}
	.st1{fill:none;}
</style>
<g>
	<path id="BLADDER" class="st0" d="M72.3,82.1C32.4,82.1,0,114.4,0,154.4c0,39.9,32.4,72.3,72.3,72.3c39.9,0,72.3-32.4,72.3-72.3
		C144.6,114.4,112.2,82.1,72.3,82.1z M87.5,157.9c-1.2,6.2-6.5,11.2-12.8,12.3c-0.8,0.1-1.7,0.2-2.5,0.2c-6.4,0-12.5-4.2-14.7-10.3
		c-2.2-6-0.2-13.3,4.8-17.3c2.7-2.3,6.2-3.5,9.9-3.5c2.9,0,5.6,0.8,8,2.2C85.8,144.8,88.8,151.6,87.5,157.9z"/>
	<line id="AIRTUBE4" class="st1" x1="72.3" y1="0" x2="72.3" y2="100.7"/>
</g>
</svg>
