<?xml version="1.0" encoding="utf-8"?>
<!-- Generator: Adobe Illustrator 22.1.0, SVG Export Plug-In . SVG Version: 6.00 Build 0)  -->
<svg version="1.1" id="Layer_1" xmlns="http://www.w3.org/2000/svg" xmlns:xlink="http://www.w3.org/1999/xlink" x="0px" y="0px"
	 viewBox="0 0 216 216" style="enable-background:new 0 0 216 216;" xml:space="preserve">
<style type="text/css">
	.st0{fill:#999999;}
	.st1{fill:none;stroke:#4D4D4D;stroke-width:9.2126;stroke-miterlimit:10;}
	.st2{display:none;}
	.st3{display:inline;fill:none;stroke:#808080;stroke-width:0.25;stroke-miterlimit:10;}
	.st4{fill:#4D4D4D;}
	.st5{fill:#CCCCCC;}
</style>
<g>
	<circle id="BLADDER_17_" class="st0" cx="106.3" cy="70" r="14.2"/>
	<circle id="BLADDER_16_" class="st0" cx="152.3" cy="70" r="14.2"/>
	<line id="AIRTUBE4_2_" class="st1" x1="106.3" y1="99" x2="106.3" y2="0"/>
	<circle id="BLADDER_9_" class="st0" cx="60.7" cy="70" r="14.2"/>
	<line id="AIRTUBE4_4_" class="st1" x1="60.7" y1="99" x2="60.7" y2="0"/>
	<line id="AIRTUBE4_3_" class="st1" x1="152.3" y1="99" x2="152.3" y2="0"/>
</g>
<g class="st2">
	<rect x="24.4" y="98.4" class="st3" width="14.2" height="99.2"/>
	<rect x="38.4" y="98.4" class="st3" width="14.2" height="99.2"/>
	<rect x="52.4" y="98.4" class="st3" width="14.2" height="99.2"/>
	<rect x="66.4" y="98.4" class="st3" width="14.2" height="99.2"/>
	<rect x="80.4" y="98.4" class="st3" width="14.2" height="99.2"/>
	<rect x="94.4" y="98.4" class="st3" width="14.2" height="99.2"/>
	<rect x="108.4" y="98.4" class="st3" width="14.2" height="99.2"/>
	<rect x="136.4" y="98.4" class="st3" width="14.2" height="99.2"/>
	<rect x="164.4" y="98.4" class="st3" width="14.2" height="99.2"/>
	<rect x="150.4" y="98.4" class="st3" width="14.2" height="99.2"/>
	<rect x="122.4" y="98.4" class="st3" width="14.2" height="99.2"/>
	<rect x="178.4" y="98.4" class="st3" width="14.2" height="99.2"/>
	
		<rect x="101.4" y="21.4" transform="matrix(-1.836970e-16 1 -1 -1.836970e-16 214.4469 -2.4468)" class="st3" width="14.2" height="169.1"/>
	
		<rect x="101.4" y="35.4" transform="matrix(-1.836970e-16 1 -1 -1.836970e-16 228.4469 11.5532)" class="st3" width="14.2" height="169.1"/>
	
		<rect x="101.4" y="49.4" transform="matrix(-1.836970e-16 1 -1 -1.836970e-16 242.4469 25.5532)" class="st3" width="14.2" height="169.1"/>
	
		<rect x="101.4" y="63.4" transform="matrix(-1.836970e-16 1 -1 -1.836970e-16 256.4469 39.5532)" class="st3" width="14.2" height="169.1"/>
	
		<rect x="101.4" y="77.4" transform="matrix(-1.836970e-16 1 -1 -1.836970e-16 270.4469 53.5532)" class="st3" width="14.2" height="169.1"/>
	
		<rect x="101.4" y="91.4" transform="matrix(-1.836970e-16 1 -1 -1.836970e-16 284.4469 67.5532)" class="st3" width="14.2" height="169.1"/>
	
		<rect x="101.4" y="105.4" transform="matrix(-1.836970e-16 1 -1 -1.836970e-16 298.4469 81.5532)" class="st3" width="14.2" height="169.1"/>
</g>
<rect id="BLADDER_10_" x="21.5" y="98.6" class="st4" width="170.1" height="99.2"/>
<g>
	<circle id="BLADDER_11_" class="st5" cx="36.5" cy="158.8" r="5.7"/>
	<circle id="BLADDER_12_" class="st5" cx="64.5" cy="158.8" r="5.7"/>
	<circle id="BLADDER_14_" class="st5" cx="92.5" cy="158.8" r="5.7"/>
	<circle id="BLADDER_13_" class="st5" cx="120.5" cy="158.8" r="5.7"/>
	<circle id="BLADDER_18_" class="st5" cx="148.5" cy="158.8" r="5.7"/>
	<circle id="BLADDER_15_" class="st5" cx="176.5" cy="158.8" r="5.7"/>
	<circle id="BLADDER_30_" class="st5" cx="162.5" cy="172.8" r="4.3"/>
	<circle id="BLADDER_31_" class="st5" cx="134.5" cy="172.8" r="4.3"/>
	<circle id="BLADDER_32_" class="st5" cx="107.5" cy="172.8" r="4.3"/>
	<circle id="BLADDER_33_" class="st5" cx="78.5" cy="172.8" r="4.3"/>
	<circle id="BLADDER_34_" class="st5" cx="50.5" cy="172.8" r="4.3"/>
	<circle id="BLADDER_35_" class="st5" cx="36.5" cy="186.8" r="2.8"/>
	<circle id="BLADDER_36_" class="st5" cx="64.5" cy="186.8" r="2.8"/>
	<circle id="BLADDER_37_" class="st5" cx="92.5" cy="186.8" r="2.8"/>
	<circle id="BLADDER_38_" class="st5" cx="120.5" cy="186.8" r="2.8"/>
	<circle id="BLADDER_39_" class="st5" cx="148.5" cy="186.8" r="2.8"/>
	<circle id="BLADDER_40_" class="st5" cx="176.5" cy="186.8" r="2.8"/>
	<circle id="BLADDER_19_" class="st5" cx="50.5" cy="137.8" r="7.1"/>
	<circle id="BLADDER_20_" class="st5" cx="78.5" cy="137.8" r="7.1"/>
	<circle id="BLADDER_21_" class="st5" cx="106.5" cy="137.8" r="7.1"/>
	<circle id="BLADDER_22_" class="st5" cx="134.5" cy="137.8" r="7.1"/>
	<circle id="BLADDER_23_" class="st5" cx="162.5" cy="137.8" r="7.1"/>
	<circle id="BLADDER_24_" class="st5" cx="148.5" cy="116.8" r="9.9"/>
	<circle id="BLADDER_29_" class="st5" cx="176.5" cy="116.8" r="9.9"/>
	<circle id="BLADDER_25_" class="st5" cx="120.5" cy="116.8" r="9.9"/>
	<circle id="BLADDER_26_" class="st5" cx="92.5" cy="116.8" r="9.9"/>
	<circle id="BLADDER_27_" class="st5" cx="64.5" cy="116.8" r="9.9"/>
	<circle id="BLADDER_28_" class="st5" cx="36.5" cy="116.8" r="9.9"/>
</g>
</svg>
