<?xml version="1.0" encoding="utf-8"?>
<!-- Generator: Adobe Illustrator 22.0.1, SVG Export Plug-In . SVG Version: 6.00 Build 0)  -->
<svg version="1.1" id="Layer_1" xmlns="http://www.w3.org/2000/svg" xmlns:xlink="http://www.w3.org/1999/xlink" x="0px" y="0px"
	 viewBox="0 0 184.3 205.6" style="enable-background:new 0 0 184.3 205.6;" xml:space="preserve">
<style type="text/css">
	.st0{fill:#989898;}
	.st1{fill:none;stroke:#010101;stroke-width:0.75;stroke-miterlimit:10;}
</style>
<path id="VINYL" class="st0" d="M156.6,145.6v-31.4c11.9-0.8,21.3-10.7,21.3-22.8c0-12.1-9.4-22-21.3-22.8V46.2h-66h-3.2h-66v22.3
	C9.4,69.4,0,79.3,0,91.4c0,12.1,9.4,22,21.3,22.8v31.4H0v59.9h184.3v-59.9H156.6z M153.3,49.5v19.1c-11.9,0.8-21.3,10.7-21.3,22.8
	c0,12.1,9.4,22,21.3,22.8v31.4H90.5v-31.4c11.9-0.8,21.3-10.7,21.3-22.8c0-12.1-9.4-22-21.3-22.8V49.5H153.3z M24.5,114.2
	c11.9-0.8,21.3-10.7,21.3-22.8c0-12.1-9.4-22-21.3-22.8V49.5h62.8v19.1C75.4,69.4,66,79.3,66,91.4c0,12.1,9.4,22,21.3,22.8v31.4
	H24.5V114.2z"/>
<path id="BLADDER" class="st0" d="M156.6,145.6v-31.4c11.9-0.8,21.3-10.7,21.3-22.8c0-12.1-9.4-22-21.3-22.8V46.2h-66h-3.2h-66v22.3
	C9.4,69.4,0,79.3,0,91.4c0,12.1,9.4,22,21.3,22.8v31.4H0v59.9h184.3v-59.9H156.6z"/>
<line id="AIRTUBE4" class="st1" x1="92.2" y1="67.7" x2="92.2" y2="0"/>
</svg>
