<?xml version="1.0" encoding="utf-8"?>
<!-- Generator: Adobe Illustrator 22.0.1, SVG Export Plug-In . SVG Version: 6.00 Build 0)  -->
<svg version="1.1" id="Layer_1" xmlns="http://www.w3.org/2000/svg" xmlns:xlink="http://www.w3.org/1999/xlink" x="0px" y="0px"
	 viewBox="0 0 216 216" style="enable-background:new 0 0 216 216;" xml:space="preserve">
<style type="text/css">
	.st0{fill:none;stroke:#000000;stroke-width:0.75;stroke-miterlimit:10;}
	.st1{fill:#989898;}
</style>
<line id="AIRTUBE4" class="st0" x1="71.5" y1="37.3" x2="71.5" y2="5"/>
<path id="BLADDER" class="st1" d="M152.1,159.8V71.1c11.1-1.6,19.6-11.1,19.6-22.6c0-12.6-10.2-22.9-22.9-22.9
	c-11.7,0-21.3,8.7-22.7,20h-32c-1.4-11.3-11-20-22.7-20c-12.6,0-22.9,10.2-22.9,22.9c0,12.6,10.2,22.9,22.9,22.9
	c11.7,0,21.3-8.7,22.7-20h32c1.3,10.5,9.7,18.8,20.3,19.9v88.6c-10.4,1.3-18.6,9.5-19.9,19.9H94.2c-1.3-10.4-9.5-18.6-19.9-19.9
	v-31.9c11.3-1.4,20-11,20-22.7c0-12.6-10.2-22.9-22.9-22.9c-12.6,0-22.9,10.2-22.9,22.9c0,11.7,8.7,21.3,20,22.7v31.9
	c-11.3,1.4-20,11-20,22.7c0,12.6,10.2,22.9,22.9,22.9c11.7,0,21.3-8.7,22.7-20h32.4c1.4,11.3,11,20,22.7,20
	c12.6,0,22.9-10.2,22.9-22.9C172.1,170.8,163.4,161.2,152.1,159.8z"/>
</svg>
