<?xml version="1.0" encoding="utf-8"?>
<!-- Generator: Adobe Illustrator 22.1.0, SVG Export Plug-In . SVG Version: 6.00 Build 0)  -->
<svg version="1.1" id="Layer_1" xmlns="http://www.w3.org/2000/svg" xmlns:xlink="http://www.w3.org/1999/xlink" x="0px" y="0px"
	 viewBox="0 0 121.9 180.7" style="enable-background:new 0 0 121.9 180.7;" xml:space="preserve">
<style type="text/css">
	.st0{fill:#2B378B;}
	.st1{fill:none;}
</style>
<path id="BLADDER" class="st0" d="M104.6,61.6c-9.1-9.3-21-15.5-33.7-17.6V20.7H51V44C39.3,46,28.3,51.3,19.5,59.4
	C8,70.1,0.9,85.1,0.1,100.8c-0.9,16.8,5.3,33.5,17,45.7c5.7,5.9,12.6,10.7,20.2,13.8c1,0.4,1.2,0.3,1.5,1.2c0.2,0.8,0.4,1.7,0.6,2.5
	c0.7,2.6,1.3,5.3,2,7.9c0.6,2.4,1.2,4.8,1.8,7.2c0.1,0.3,0.2,1.3,0.4,1.6c0.1,0.1,0.3,0,0.4,0.1c1.4,0.1,2.9,0,4.3,0
	c2.5,0,5,0,7.5,0c5.6,0,11.1,0,16.7,0c1.8,0,3.6,0,5.4,0c0.8,0,1.1,0.2,1.3-0.5c1.1-4.8,2.2-9.5,3.3-14.3c0.3-1.1,0.5-2.2,0.8-3.3
	c0.1-0.5,0.2-1.3,0.4-1.8c0.2-0.3,0.5-0.3,0.8-0.5c1-0.4,1.9-0.8,2.8-1.3c1.9-0.9,3.7-1.9,5.4-3c14.2-8.7,24.4-23.1,27.8-39.4
	c0.9-4.1,1.3-8.4,1.3-12.6C121.9,88.3,115.6,72.9,104.6,61.6z M87.3,109.5c-2.2,10.9-11.3,19.5-22.2,21.3c-1.4,0.2-2.8,0.3-4.2,0.3
	c-11.2,0-21.5-7.2-25.3-17.7c-3.9-10.6-0.5-22.9,8.2-30c8.7-7.2,21.3-8.1,31-2.3C84.5,86.9,89.6,98.4,87.3,109.5z"/>
<line id="AIRTUBE4" class="st1" x1="61" y1="7.2" x2="61" y2="39.2"/>
</svg>
