<?xml version="1.0" encoding="utf-8"?>
<!-- Generator: Adobe Illustrator 22.0.1, SVG Export Plug-In . SVG Version: 6.00 Build 0)  -->
<svg version="1.1" id="Layer_1" xmlns="http://www.w3.org/2000/svg" xmlns:xlink="http://www.w3.org/1999/xlink" x="0px" y="0px"
	 viewBox="0 0 216 216" style="enable-background:new 0 0 216 216;" xml:space="preserve">
<style type="text/css">
	.st0{fill:none;stroke:#000000;stroke-width:0.75;stroke-miterlimit:10;}
	.st1{fill:#1A1A1A;}
</style>
<line id="AIRTUBE4" class="st0" x1="108" y1="50.8" x2="108" y2="18.5"/>
<path id="BLADDER" class="st1" d="M182,197.6H58c-12.5,0-22.6-10.1-22.6-22.6s10.1-22.6,22.6-22.6h105c7.4,0,13.4-6,13.4-13.4
	s-6-13.4-13.4-13.4H56c-12.5,0-22.6-10.1-22.6-22.6c0-12.5,10.1-22.6,22.6-22.6h105c7.4,0,13.4-6,13.4-13.4s-6-13.4-13.4-13.4h-54
	c-2.5,0-4.6-2.1-4.6-4.6s2.1-4.6,4.6-4.6h54c12.5,0,22.6,10.1,22.6,22.6S173.5,89.6,161,89.6H56c-7.4,0-13.4,6-13.4,13.4
	c0,7.4,6,13.4,13.4,13.4h107c12.5,0,22.6,10.1,22.6,22.6s-10.1,22.6-22.6,22.6H58c-7.4,0-13.4,6-13.4,13.4s6,13.4,13.4,13.4h124
	c2.5,0,4.6,2.1,4.6,4.6S184.5,197.6,182,197.6z"/>
</svg>
