<?xml version="1.0" encoding="utf-8"?>
<!-- Generator: Adobe Illustrator 22.0.1, SVG Export Plug-In . SVG Version: 6.00 Build 0)  -->
<svg version="1.1" id="Layer_1" xmlns="http://www.w3.org/2000/svg" xmlns:xlink="http://www.w3.org/1999/xlink" x="0px" y="0px"
	 viewBox="0 0 216 216" style="enable-background:new 0 0 216 216;" xml:space="preserve">
<style type="text/css">
	.st0{fill:#989898;}
	.st1{fill:none;stroke:#000000;stroke-width:0.75;stroke-miterlimit:10;}
</style>
<path id="BLADDER" class="st0" d="M45,202.9c-8.4,0-15.2-6.8-15.2-15.2s6.8-15.2,15.2-15.2h126.1c1.5,0,2.7-1.2,2.7-2.7
	s-1.2-2.7-2.7-2.7H45c-8.4,0-15.2-6.8-15.2-15.2s6.8-15.2,15.2-15.2h126.1c1.5,0,2.7-1.2,2.7-2.7s-1.2-2.7-2.7-2.7H45
	c-8.4,0-15.2-6.8-15.2-15.2c0-8.4,6.8-15.2,15.2-15.2h126.1c1.5,0,2.7-1.2,2.7-2.7s-1.2-2.7-2.7-2.7H45c-8.4,0-15.2-6.8-15.2-15.2
	c0-8.4,6.8-15.2,15.2-15.2h126.1c1.5,0,2.7-1.2,2.7-2.7s-1.2-2.7-2.7-2.7H108c-3.4,0-6.2-2.8-6.2-6.2v-6.2l12.5,0h56.8
	c8.4,0,15.2,6.8,15.2,15.2s-6.8,15.2-15.2,15.2H45c-1.5,0-2.7,1.2-2.7,2.7S43.5,83,45,83h126.1c8.4,0,15.2,6.8,15.2,15.2
	c0,8.4-6.8,15.2-15.2,15.2H45c-1.5,0-2.7,1.2-2.7,2.7s1.2,2.7,2.7,2.7h126.1c8.4,0,15.2,6.8,15.2,15.2c0,8.4-6.8,15.2-15.2,15.2H45
	c-1.5,0-2.7,1.2-2.7,2.7s1.2,2.7,2.7,2.7h126.1c8.4,0,15.2,6.8,15.2,15.2s-6.8,15.2-15.2,15.2H45c-1.5,0-2.7,1.2-2.7,2.7
	s1.2,2.7,2.7,2.7h133.1c3.4,0,6.2,2.8,6.2,6.2s-2.8,6.2-6.2,6.2L45,202.9L45,202.9z"/>
<line id="AIRTUBE4" class="st1" x1="108" y1="50.8" x2="108" y2="18.5"/>
</svg>
