<svg version="1.1" xmlns="http://www.w3.org/2000/svg" xmlns:xlink="http://www.w3.org/1999/xlink" width="1105.59375" height="1257"><g transform=""><g id="SILOSEAM" fill="none" fill-rule="nonzero" stroke="#000000" stroke-width="1" stroke-linecap="butt" stroke-linejoin="miter" stroke-miterlimit="10" stroke-dasharray="" stroke-dashoffset="0" font-family="none" font-weight="none" font-size="none" text-anchor="none" style="mix-blend-mode: normal"><g id="temp"><path id="BLADDER"/><path d="M254.963,151.559l1.431,3.932l2.874,11.165l1.069,6.048l1.028,9.332l0.224,4.107l0.068,58.54l5.988,4.455l4.087,3.482l7.3,7.048l4.745,5.489l6.286,8.424l4.767,7.871l3.868,7.678l3.811,9.365l2.797,9.26l1.501,6.837l1.006,6.232l0.71,7.263l0.297,6.358l-0.109,6.279l-0.76,9.307l-1.323,8.001l-2.564,10.292l-2.978,8.668l-2.929,6.597l-2.833,5.635l-2.098,3.76l-3.277,5.174l-3.064,4.351l-5.007,6.305l-4.882,5.38l-8.65,7.833l-6.689,5.074l-0.036,52.429l-0.193,7.216l-0.4,7.099l-1.015,7.194l-0.797,4.286l-1.389,6.022l-3.225,9.942l-2.703,6.656l-4.593,9.175l-4.436,7.336l-6.736,9.017l-4.146,4.773l-8.111,7.891l-5.78,4.771l-6.676,4.679l-9.098,5.303l-6.533,3.076l-11.873,4.31l-7.138,1.824l-9.007,1.587l-6.286,0.604l-6.165,0.222l-6.463,-0.091l-9.346,-0.922l-6.893,-1.226l-6.158,-1.585l-9.806,-3.251l-4.998,-2.1l-4.755,-2.308l-7.153,-3.977l-7.628,-5.137l-9.093,-7.512l-6.512,-6.526l-4.059,-4.659l-6.753,-9.132l-4.838,-8.044l-3.234,-6.459l-2.104,-4.88l-2.504,-6.764l-2.157,-7.056l-1.169,-5.14l-1.1,-5.924l-0.785,-5.419l-0.602,-8.98l-0.111,-58.28l-10.937,-8.854l-5.809,-5.791l-4.845,-5.464l-2.684,-3.427l-4.201,-5.869l-4.257,-6.939l-2.921,-5.599l-4.515,-10.371l-2.664,-8.206l-2.134,-9.022l-1.583,-10.295l-0.55,-9.401l0.176,-8.31l0.886,-9.372l1.644,-8.853l2.422,-9.223l2.506,-6.888l2.309,-5.637l5.26,-10.232l5.685,-8.874l4.908,-6.353l7.93,-8.47l5.315,-4.853l8.112,-6.165l0.226,-61.206l0.577,-7.294l1.461,-9.007l1.41,-6.135l1.792,-5.933l1.762,-5.035l2.595,-6.538l4.837,-9.524l4.218,-6.905l4.278,-5.881l6.042,-7.214l5.791,-5.861l4.065,-3.631l6.512,-5.15l6.703,-4.483l5.433,-3.177l9.652,-4.635l6.658,-2.45l11.231,-3.131l4.852,-0.859l-0.037,-49.629l-1.333,-0.616l-1.044,-1.032l-0.63,-1.326l-0.23,-1.556l0.063,-22.48l0.744,-2.026l0.98,-1.094l1.293,-0.695l0.717,-0.17l33.353,0.019l1.381,0.499l1.128,0.939l1.154,1.723l0.302,1.437l-0.034,22.693l-0.439,1.401l-0.889,1.168l-1.234,0.796l-0.701,0.227l-0.032,49.727l10.645,2.325l5.036,1.634l13.456,5.504l8.886,5.01l5.904,3.93l7.386,5.798l6.877,6.471l4.896,5.442l4.47,5.609l2.563,3.495l5.413,8.724l4.248,8.373z" data-paper-data="{&quot;height&quot;:4}" id="MOLD_WALL"/><path d="M203.113,96.12l3.679,2.099l6.813,4.534l6.432,5.051l6.776,6.365l4.079,4.462l3.325,4.033l3.742,4.934l5.441,8.699l3.783,7.304l2.016,4.573l3.165,8.664l2.424,8.95l1.29,7.066l1.028,9.166l0.233,4.157l0.069,60.662l7.027,5.157l3.841,3.201l7.469,7.159l5.343,6.193l5.505,7.484l4.801,7.955l3.186,6.303l3.932,9.631l2.435,7.807l1.992,9.074l0.857,5.96l0.465,5.205l0.31,6.192l-0.081,6.013l-0.742,9.243l-1.338,8.065l-2.216,9.019l-2.999,8.79l-3.776,8.49l-3.338,6.223l-3.848,6.08l-2.427,3.465l-5.107,6.451l-4.772,5.261l-7.651,6.985l-4.713,3.718l-4.156,2.934l-0.04,58.112l-0.536,10.203l-1.306,9.194l-1.834,7.968l-2.436,7.817l-2.657,6.719l-1.723,3.859l-3.812,7.288l-3.706,6.013l-6.197,8.348l-4.636,5.337l-7.48,7.214l-5.457,4.51l-6.699,4.692l-8.022,4.706l-7.404,3.487l-9.793,3.576l-6.824,1.831l-10.27,1.812l-6.011,0.52l-5.239,0.16l-6.215,-0.079l-8.153,-0.745l-8.06,-1.434l-6.912,-1.843l-7.794,-2.684l-3.924,-1.613l-4.529,-2.123l-8.074,-4.485l-7.672,-5.21l-7.196,-5.888l-7.324,-7.33l-3.927,-4.537l-6.183,-8.356l-4.783,-7.961l-3.655,-7.315l-2.293,-5.599l-1.737,-4.931l-1.818,-5.912l-1.135,-4.911l-1.14,-6.116l-0.743,-5.03l-0.619,-9.241l-0.091,-60.101l-4.087,-2.879l-8.027,-6.59l-6.577,-6.564l-3.931,-4.534l-2.606,-3.331l-4.199,-5.878l-4.247,-6.993l-3.209,-6.292l-3.608,-8.56l-2.519,-7.779l-1.927,-7.971l-1.609,-10.249l-0.551,-9.267l0.083,-7.061l0.793,-9.254l1.888,-10.167l2.14,-7.943l1.63,-4.724l3.116,-7.61l4.638,-9.113l5.563,-8.75l4.993,-6.475l7.058,-7.604l6.065,-5.537l9.183,-6.892l0.133,-61.922l0.633,-8.162l1.49,-9.141l1.372,-5.842l2.415,-7.865l3.808,-9.592l3.715,-7.284l4.843,-7.93l4.849,-6.585l5.335,-6.193l5.119,-5.106l3.126,-2.85l6.42,-5.154l7.678,-5.134l5.219,-2.99l8.404,-3.992l6.724,-2.476l9.932,-2.822l8.884,-1.573v-57.30713l-3.3,0.00313l-0.031,-22.678h32.67v22.647l-3.331,0.00316v57.42384l3.733,0.557l10.059,2.217l6.832,2.231l10.529,4.424z" data-paper-data="{&quot;height&quot;:2}" id="SEAM_STEP"/><path data-paper-data="{&quot;height&quot;:0}" id="SEAM"/><path d="M164.673,86.724l8.15,1.217l8.261,1.977l8.057,2.694l7.784,3.382l7.46,4.036l7.086,4.652l6.666,5.226l6.206,5.76l5.709,6.246l5.179,6.69l4.617,7.087l4.027,7.435l3.412,7.737l2.776,7.989l2.121,8.187l1.456,8.328l0.783,8.413l0.141,4.22l0.009,60.309l6.555,4.621l6.504,5.421l6.031,5.931l5.528,6.407l4.988,6.831l4.416,7.214l3.816,7.549l3.19,7.833l2.543,8.07l1.878,8.247l1.203,8.372l0.523,8.436l-0.105,7.888l-0.752,8.414l-1.424,8.334l-2.089,8.193l-2.743,7.998l-3.381,7.751l-3.998,7.454l-4.588,7.104l-5.154,6.71l-5.686,6.268l-6.189,5.782l-6.65,5.246l-4.416,3.018l-0.043,61.908l-0.576,8.426l-1.248,8.361l-1.916,8.238l-2.574,8.054l-3.218,7.82l-3.838,7.534l-4.437,7.199l-5.009,6.819l-5.548,6.388l-6.056,5.915l-6.528,5.396l-6.96,4.834l-7.35,4.231l-7.69,3.589l-7.981,2.91l-8.203,2.202l-8.367,1.473l-8.461,0.732l-8.493,-0.006l-8.461,-0.747l-8.367,-1.488l-8.199,-2.215l-7.974,-2.924l-7.684,-3.6l-7.344,-4.245l-6.951,-4.844l-6.52,-5.407l-6.045,-5.922l-5.538,-6.397l-4.998,-6.827l-4.426,-7.205l-3.829,-7.543l-3.204,-7.824l-2.561,-8.058l-1.905,-8.241l-1.234,-8.362l-0.563,-8.428l-0.039,-61.762l-6.24,-4.395l-6.515,-5.408l-6.048,-5.921l-5.539,-6.39l-5.004,-6.816l-4.439,-7.2l-3.84,-7.531l-3.22,-7.82l-2.578,-8.055l-1.917,-8.234l-1.248,-8.363l-0.571,-8.431l0.099,-8.448l0.767,-8.413l1.439,-8.329l2.105,-8.188l2.759,-7.997l3.395,-7.741l4.012,-7.446l4.602,-7.097l5.167,-6.701l5.7,-6.259l6.198,-5.767l6.662,-5.235l4.254,-2.899l0.049,-62.108l0.592,-8.429l1.263,-8.356l1.932,-8.234l2.59,-8.048l3.23,-7.812l3.856,-7.53l4.451,-7.193l5.021,-6.807l5.56,-6.378l6.067,-5.903l6.537,-5.381l6.971,-4.822l7.357,-4.216l7.7,-3.573l7.983,-2.894l8.211,-2.185l8.372,-1.456l2.358,-0.273l0,-59.82383l20.338,-0.01932z"/><path d="M55.138,313.244l-0.717,0.311l-0.464,0.665l-0.084,42.14l0.153,1.389l0.548,0.606l0.742,0.212l0.739,-0.226l0.537,-0.613l0.143,-1.504l-0.029,-41.769l-0.328,-0.712l-0.675,-0.45z"/><path id="SEPARATOR"/><path d="M296.10393,335.85c0,35.9 -19,67.5 -47.2,84.4v62c0,53.7 -42.5,97.6 -94.5,97.6c-52,0 -94.5,-43.9 -94.5,-97.6v-62c-28.1,-17 -47.2,-48.5 -47.2,-84.4c0,-35.9 19,-67.5 47.2,-84.4v-62c0,-52.17724 40.12384,-95.10239 90.1,-97.49488v-67.90512h-9v-17.00787h27v17.00787l-9,0v67.91492c49.88316,2.49726 89.9,45.37747 89.9,97.48508v62c28.2,17 47.3,48.5 47.2,84.4z"/><path d="M62.40393,314.65c0,-3.9 -3.2,-7.1 -7.1,-7.1c-3.9,0 -7.1,3.2 -7.1,7.1v42.5c0,3.9 3.2,7.1 7.1,7.1c3.9,0 7.1,-3.2 7.1,-7.1z"/><path d="M182.80393,517.85c0,-3.9 -3.2,-7.1 -7.1,-7.1h-42.5c-3.9,0 -7.1,3.2 -7.1,7.1c0,3.9 3.2,7.1 7.1,7.1h42.5c3.9,0 7.1,-3.2 7.1,-7.1z"/><path d="M211.20393,489.85c0,-2.4 -2,-4.3 -4.3,-4.3h-104.9c-2.4,0 -4.3,1.9 -4.3,4.3c0,2.4 2,4.3 4.3,4.3h104.9c2.3,0 4.3,-1.9 4.3,-4.3z"/><path d="M133.20393,468.95h42.5c3.9,0 7.1,-3.2 7.1,-7.1c0,-3.9 -3.2,-7.1 -7.1,-7.1h-42.5c-3.9,0 -7.1,3.2 -7.1,7.1c0,3.9 3.2,7.1 7.1,7.1z"/><path d="M211.20393,433.85c0,-2.4 -2,-4.3 -4.3,-4.3h-104.9c-2.4,0 -4.3,1.9 -4.3,4.3c0,2.4 2,4.3 4.3,4.3h104.9c2.3,0 4.3,-1.9 4.3,-4.3z"/><path d="M133.20393,412.95h42.5c3.9,0 7.1,-3.2 7.1,-7.1c0,-3.9 -3.2,-7.1 -7.1,-7.1h-42.5c-3.9,0 -7.1,3.2 -7.1,7.1c0,3.9 3.2,7.1 7.1,7.1z"/><path d="M211.20393,377.85c0,-2.4 -2,-4.3 -4.3,-4.3h-104.9c-2.4,0 -4.3,1.9 -4.3,4.3c0,2.4 2,4.3 4.3,4.3h104.9c2.3,0 4.3,-1.9 4.3,-4.3z"/><path d="M133.20393,356.95h42.5c3.9,0 7.1,-3.2 7.1,-7.1c0,-3.9 -3.2,-7.1 -7.1,-7.1h-42.5c-3.9,0 -7.1,3.2 -7.1,7.1c0,3.9 3.2,7.1 7.1,7.1z"/><path d="M211.20393,321.85c0,-2.4 -2,-4.3 -4.3,-4.3h-104.9c-2.4,0 -4.3,1.9 -4.3,4.3c0,2.4 2,4.3 4.3,4.3h104.9c2.3,0 4.3,-1.9 4.3,-4.3z"/><path d="M133.20393,300.95h42.5c3.9,0 7.1,-3.2 7.1,-7.1c0,-3.9 -3.2,-7.1 -7.1,-7.1h-42.5c-3.9,0 -7.1,3.2 -7.1,7.1c0,3.9 3.2,7.1 7.1,7.1z"/><path d="M211.20393,265.85c0,-2.4 -2,-4.3 -4.3,-4.3h-104.9c-2.4,0 -4.3,1.9 -4.3,4.3c0,2.4 2,4.3 4.3,4.3h104.9c2.3,0 4.3,-1.9 4.3,-4.3z"/><path d="M133.20393,244.95h42.5c3.9,0 7.1,-3.2 7.1,-7.1c0,-3.9 -3.2,-7.1 -7.1,-7.1h-42.5c-3.9,0 -7.1,3.2 -7.1,7.1c0,3.9 3.2,7.1 7.1,7.1z"/><path d="M211.20393,209.85c0,-2.4 -2,-4.3 -4.3,-4.3h-104.9c-2.4,0 -4.3,1.9 -4.3,4.3c0,2.4 2,4.3 4.3,4.3h104.9c2.3,0 4.3,-1.9 4.3,-4.3z"/><path d="M133.20393,188.95h42.5c3.9,0 7.1,-3.2 7.1,-7.1c0,-3.9 -3.2,-7.1 -7.1,-7.1h-42.5c-3.9,0 -7.1,3.2 -7.1,7.1c0,3.9 3.2,7.1 7.1,7.1z"/><path d="M211.20393,153.85c0,-2.4 -2,-4.3 -4.3,-4.3h-104.9c-2.4,0 -4.3,1.9 -4.3,4.3c0,2.4 2,4.3 4.3,4.3h104.9c2.3,0 4.3,-1.9 4.3,-4.3z"/><path d="M261.40393,314.65c0,-3.9 -3.2,-7.1 -7.1,-7.1c-3.9,0 -7.1,3.2 -7.1,7.1v42.5c0,3.9 3.2,7.1 7.1,7.1c3.9,0 7.1,-3.2 7.1,-7.1z"/><path d="M296.10393,335.85c0,35.9 -19,67.5 -47.2,84.4v62c0,53.7 -42.5,97.6 -94.5,97.6c-52,0 -94.5,-43.9 -94.5,-97.6v-62c-28.1,-17 -47.2,-48.5 -47.2,-84.4c0,-35.9 19,-67.5 47.2,-84.4v-62c0,-52.17724 40.12384,-95.10239 90.1,-97.49488v-67.90512h-9v-17.00787h27v17.00787l-9,0v67.91492c49.88316,2.49726 89.9,45.37747 89.9,97.48508v62c28.2,17 47.3,48.5 47.2,84.4z"/><path d="M62.40393,314.65c0,-3.9 -3.2,-7.1 -7.1,-7.1c-3.9,0 -7.1,3.2 -7.1,7.1v42.5c0,3.9 3.2,7.1 7.1,7.1c3.9,0 7.1,-3.2 7.1,-7.1z"/><path d="M182.80393,517.85c0,-3.9 -3.2,-7.1 -7.1,-7.1h-42.5c-3.9,0 -7.1,3.2 -7.1,7.1c0,3.9 3.2,7.1 7.1,7.1h42.5c3.9,0 7.1,-3.2 7.1,-7.1z"/><path d="M211.20393,489.85c0,-2.4 -2,-4.3 -4.3,-4.3h-104.9c-2.4,0 -4.3,1.9 -4.3,4.3c0,2.4 2,4.3 4.3,4.3h104.9c2.3,0 4.3,-1.9 4.3,-4.3z"/><path d="M133.20393,468.95h42.5c3.9,0 7.1,-3.2 7.1,-7.1c0,-3.9 -3.2,-7.1 -7.1,-7.1h-42.5c-3.9,0 -7.1,3.2 -7.1,7.1c0,3.9 3.2,7.1 7.1,7.1z"/><path d="M211.20393,433.85c0,-2.4 -2,-4.3 -4.3,-4.3h-104.9c-2.4,0 -4.3,1.9 -4.3,4.3c0,2.4 2,4.3 4.3,4.3h104.9c2.3,0 4.3,-1.9 4.3,-4.3z"/><path d="M133.20393,412.95h42.5c3.9,0 7.1,-3.2 7.1,-7.1c0,-3.9 -3.2,-7.1 -7.1,-7.1h-42.5c-3.9,0 -7.1,3.2 -7.1,7.1c0,3.9 3.2,7.1 7.1,7.1z"/><path d="M211.20393,377.85c0,-2.4 -2,-4.3 -4.3,-4.3h-104.9c-2.4,0 -4.3,1.9 -4.3,4.3c0,2.4 2,4.3 4.3,4.3h104.9c2.3,0 4.3,-1.9 4.3,-4.3z"/><path d="M133.20393,356.95h42.5c3.9,0 7.1,-3.2 7.1,-7.1c0,-3.9 -3.2,-7.1 -7.1,-7.1h-42.5c-3.9,0 -7.1,3.2 -7.1,7.1c0,3.9 3.2,7.1 7.1,7.1z"/><path d="M211.20393,321.85c0,-2.4 -2,-4.3 -4.3,-4.3h-104.9c-2.4,0 -4.3,1.9 -4.3,4.3c0,2.4 2,4.3 4.3,4.3h104.9c2.3,0 4.3,-1.9 4.3,-4.3z"/><path d="M133.20393,300.95h42.5c3.9,0 7.1,-3.2 7.1,-7.1c0,-3.9 -3.2,-7.1 -7.1,-7.1h-42.5c-3.9,0 -7.1,3.2 -7.1,7.1c0,3.9 3.2,7.1 7.1,7.1z"/><path d="M211.20393,265.85c0,-2.4 -2,-4.3 -4.3,-4.3h-104.9c-2.4,0 -4.3,1.9 -4.3,4.3c0,2.4 2,4.3 4.3,4.3h104.9c2.3,0 4.3,-1.9 4.3,-4.3z"/><path d="M133.20393,244.95h42.5c3.9,0 7.1,-3.2 7.1,-7.1c0,-3.9 -3.2,-7.1 -7.1,-7.1h-42.5c-3.9,0 -7.1,3.2 -7.1,7.1c0,3.9 3.2,7.1 7.1,7.1z"/><path d="M211.20393,209.85c0,-2.4 -2,-4.3 -4.3,-4.3h-104.9c-2.4,0 -4.3,1.9 -4.3,4.3c0,2.4 2,4.3 4.3,4.3h104.9c2.3,0 4.3,-1.9 4.3,-4.3z"/><path d="M133.20393,188.95h42.5c3.9,0 7.1,-3.2 7.1,-7.1c0,-3.9 -3.2,-7.1 -7.1,-7.1h-42.5c-3.9,0 -7.1,3.2 -7.1,7.1c0,3.9 3.2,7.1 7.1,7.1z"/><path d="M211.20393,153.85c0,-2.4 -2,-4.3 -4.3,-4.3h-104.9c-2.4,0 -4.3,1.9 -4.3,4.3c0,2.4 2,4.3 4.3,4.3h104.9c2.3,0 4.3,-1.9 4.3,-4.3z"/><path d="M261.40393,314.65c0,-3.9 -3.2,-7.1 -7.1,-7.1c-3.9,0 -7.1,3.2 -7.1,7.1v42.5c0,3.9 3.2,7.1 7.1,7.1c3.9,0 7.1,-3.2 7.1,-7.1z"/></g></g></g></svg>