<?xml version="1.0" encoding="UTF-8"?>
<svg width="100pt" height="100pt" version="1.1" viewBox="0 0 100 100" xmlns="http://www.w3.org/2000/svg">
 <path d="m42.195 43.18c1.9492 0 3.5312 1.5781 3.5312 3.5312 0 1.9531-1.582 3.5312-3.5312 3.5312-1.9531 0-3.5312-1.5781-3.5312-3.5312 0-1.9492 1.5781-3.5312 3.5312-3.5312m15.605 0c1.9531 0 3.5352 1.5781 3.5352 3.5312 0 1.9531-1.582 3.5312-3.5352 3.5312-1.9492 0-3.5312-1.5781-3.5312-3.5312 0.003907-1.9492 1.5859-3.5312 3.5312-3.5312zm13.359-35.945c-11.473-9.6484-30.852-9.6484-42.324 0-9.3828 7.8906-12.809 20.992-9.8594 32.707 1.418 5.6289 4.3008 10.895 8.6602 15.035-5.9727 3.9844-6.8828 10.375-7.7617 16.566-0.92969 6.5703-1.8242 13.359-12.762 13.516-3.6992 0.050781-4.0625 5.5469-0.38672 6.0703 15.219 2.168 18.121-5.8398 21.148-13.688 1.3594-3.5273 2.7617-7.1484 6.0938-9.3164-0.34375 2.9883 0.20312 6.3008 0.76172 9.7188 0.98438 6.0039 2.0352 12.934-3.5781 16.559-3.1445 2.0273-0.45703 6.8086 2.8867 5.3008 9.7148-4.3906 11.906-14.145 13.918-22.648 0.62109-2.6289 1.2227-5.1758 2.0352-7.3477 0.80859 2.1719 1.4102 4.7148 2.0352 7.3438 2.0156 8.5078 4.2109 18.262 13.93 22.652 3.3984 1.5352 6.0117-3.2812 2.8867-5.3008-5.6133-3.625-4.5625-10.555-3.5781-16.559 0.55859-3.418 1.1016-6.7305 0.76172-9.7188 3.3359 2.168 4.7344 5.7891 6.0938 9.3164 3.0273 7.8477 5.9297 15.855 21.148 13.688 3.6758-0.51953 3.3086-6.0195-0.39062-6.0703-10.938-0.15625-11.832-6.9453-12.762-13.516-0.87891-6.1953-1.7852-12.586-7.7578-16.566 4.3594-4.1406 7.2422-9.4062 8.6602-15.035 2.9531-11.719-0.47266-24.816-9.8594-32.707z" fill-rule="evenodd"/>
</svg>
