<?xml version="1.0" encoding="utf-8"?>
<!-- Generator: Adobe Illustrator 22.0.1, SVG Export Plug-In . SVG Version: 6.00 Build 0)  -->
<svg version="1.1" id="Layer_1" xmlns="http://www.w3.org/2000/svg" xmlns:xlink="http://www.w3.org/1999/xlink" x="0px" y="0px"
	 viewBox="0 0 170.1 213.7" style="enable-background:new 0 0 170.1 213.7;" xml:space="preserve">
<style type="text/css">
	.st0{fill-rule:evenodd;clip-rule:evenodd;}
	.st1{fill:none;stroke:#000000;stroke-miterlimit:10;}
</style>
<path id="BLADDER" class="st0" d="M124.3,13.4C103-4.5,67.1-4.5,45.8,13.4C28.4,28.1,22,52.4,27.5,74.1c2.6,10.4,8,20.2,16.1,27.9
	c-11.1,7.4-12.8,19.2-14.4,30.7c-1.7,12.2-3.4,24.8-23.7,25.1c-6.9,0.1-7.5,10.3-0.7,11.3c28.2,4,33.6-10.8,39.2-25.4
	c2.5-6.5,5.1-13.3,11.3-17.3c-0.6,5.5,0.4,11.7,1.4,18c1.8,11.1,3.8,24-6.6,30.7c-5.8,3.8-0.8,12.6,5.4,9.8
	c18-8.1,22.1-26.2,25.8-42c1.2-4.9,2.3-9.6,3.8-13.6c1.5,4,2.6,8.7,3.8,13.6c3.7,15.8,7.8,33.9,25.8,42c6.3,2.8,11.2-6.1,5.4-9.8
	c-10.4-6.7-8.5-19.6-6.6-30.7c1-6.3,2-12.5,1.4-18c6.2,4,8.8,10.7,11.3,17.3c5.6,14.6,11,29.4,39.2,25.4c6.8-1,6.1-11.2-0.7-11.3
	c-20.3-0.3-21.9-12.9-23.7-25.1c-1.6-11.5-3.3-23.3-14.4-30.7c8.1-7.7,13.4-17.4,16.1-27.9C148.1,52.3,141.7,28.1,124.3,13.4
	L124.3,13.4z"/>
<line id="AIRTUBE4" class="st1" x1="85" y1="85.7" x2="85" y2="213.7"/>
</svg>
